<?xml version="1.0"?>
<svg xmlns="http://www.w3.org/2000/svg" xmlns:xlink="http://www.w3.org/1999/xlink" xmlns:svgjs="http://svgjs.com/svgjs" version="1.1" width="512" height="512" x="0" y="0" viewBox="0 0 512 512" style="enable-background:new 0 0 512 512" xml:space="preserve" class=""><g><path xmlns="http://www.w3.org/2000/svg" d="m464 0h-336c-8.824219 0-16 7.175781-16 16l.023438 80h16l-.023438-80h64v32h-40c-4.425781 0-8 3.574219-8 8v40h16v-32h32v16c0 8.824219 7.175781 16 16 16h176c8.824219 0 16-7.175781 16-16v-16h32v288h-72c-4.425781 0-8 3.574219-8 8v88h-32v16h40.496094c2.382812 0 4.640625-1.0625 6.167968-2.894531l78.878907-95.25.609375-.726563c.007812-.007812.007812-.015625.007812-.015625l.007813-.007812c.007812-.007813.007812-.027344.015625-.035157.542968-.664062.9375-1.398437 1.242187-2.175781.09375-.238281.132813-.496093.207031-.742187.160157-.566406.269532-1.144532.304688-1.738282 0-.140624.0625-.269531.0625-.414062v-304c0-4.425781-3.574219-8-8-8h-40v-32h64v480h-144v16h144c8.824219 0 16-7.175781 16-16v-480c0-8.824219-7.175781-16-16-16zm-96 368h54.921875l-54.921875 65.902344zm16-288h-176v-64h176zm0 0" fill="#ffffff" data-original="#000000" style="" class=""/><path xmlns="http://www.w3.org/2000/svg" d="m344 40h16v16h-16zm0 0" fill="#ffffff" data-original="#000000" style="" class=""/><path xmlns="http://www.w3.org/2000/svg" d="m232 40h16v16h-16zm0 0" fill="#ffffff" data-original="#000000" style="" class=""/><path xmlns="http://www.w3.org/2000/svg" d="m288 40h16v16h-16zm0 0" fill="#ffffff" data-original="#000000" style="" class=""/><path xmlns="http://www.w3.org/2000/svg" d="m320 320v16h88c4.425781 0 8-3.574219 8-8v-208c0-4.425781-3.574219-8-8-8h-88v16h80v32h-80v16h80v144zm0 0" fill="#ffffff" data-original="#000000" style="" class=""/><path xmlns="http://www.w3.org/2000/svg" d="m296 112h-288c-4.425781 0-8 3.574219-8 8v384c0 4.425781 3.574219 8 8 8h288c4.425781 0 8-3.574219 8-8v-384c0-4.425781-3.574219-8-8-8zm-280 16h272v32h-272zm0 368v-320h272v320zm0 0" fill="#ffffff" data-original="#000000" style="" class=""/><path xmlns="http://www.w3.org/2000/svg" d="m48 368h112v16h-112zm0 0" fill="#ffffff" data-original="#000000" style="" class=""/><path xmlns="http://www.w3.org/2000/svg" d="m176 368h48v16h-48zm0 0" fill="#ffffff" data-original="#000000" style="" class=""/><path xmlns="http://www.w3.org/2000/svg" d="m240 368h16v16h-16zm0 0" fill="#ffffff" data-original="#000000" style="" class=""/><path xmlns="http://www.w3.org/2000/svg" d="m224 400h16v16h-16zm0 0" fill="#ffffff" data-original="#000000" style="" class=""/><path xmlns="http://www.w3.org/2000/svg" d="m48 432h112v16h-112zm0 0" fill="#ffffff" data-original="#000000" style="" class=""/><path xmlns="http://www.w3.org/2000/svg" d="m176 432h48v16h-48zm0 0" fill="#ffffff" data-original="#000000" style="" class=""/><path xmlns="http://www.w3.org/2000/svg" d="m240 432h16v16h-16zm0 0" fill="#ffffff" data-original="#000000" style="" class=""/><path xmlns="http://www.w3.org/2000/svg" d="m144 464h112v16h-112zm0 0" fill="#ffffff" data-original="#000000" style="" class=""/><path xmlns="http://www.w3.org/2000/svg" d="m80 464h48v16h-48zm0 0" fill="#ffffff" data-original="#000000" style="" class=""/><path xmlns="http://www.w3.org/2000/svg" d="m48 464h16v16h-16zm0 0" fill="#ffffff" data-original="#000000" style="" class=""/><path xmlns="http://www.w3.org/2000/svg" d="m48 400h48v16h-48zm0 0" fill="#ffffff" data-original="#000000" style="" class=""/><path xmlns="http://www.w3.org/2000/svg" d="m112 400h16v16h-16zm0 0" fill="#ffffff" data-original="#000000" style="" class=""/><path xmlns="http://www.w3.org/2000/svg" d="m144 400h64v16h-64zm0 0" fill="#ffffff" data-original="#000000" style="" class=""/><path xmlns="http://www.w3.org/2000/svg" d="m32 136h16v16h-16zm0 0" fill="#ffffff" data-original="#000000" style="" class=""/><path xmlns="http://www.w3.org/2000/svg" d="m64 136h16v16h-16zm0 0" fill="#ffffff" data-original="#000000" style="" class=""/><path xmlns="http://www.w3.org/2000/svg" d="m96 136h16v16h-16zm0 0" fill="#ffffff" data-original="#000000" style="" class=""/><path xmlns="http://www.w3.org/2000/svg" d="m240 136h32v16h-32zm0 0" fill="#ffffff" data-original="#000000" style="" class=""/><path xmlns="http://www.w3.org/2000/svg" d="m64 264h32v40h16v-80c0-8.824219-7.175781-16-16-16h-32c-8.824219 0-16 7.175781-16 16v80h16zm32-40v24h-32v-24zm0 0" fill="#ffffff" data-original="#000000" style="" class=""/><path xmlns="http://www.w3.org/2000/svg" d="m144 272h32c8.824219 0 16-7.175781 16-16v-32c0-8.824219-7.175781-16-16-16h-32c-8.824219 0-16 7.175781-16 16v80h16zm0-48h32l.015625 32h-32.015625zm0 0" fill="#ffffff" data-original="#000000" style="" class=""/><path xmlns="http://www.w3.org/2000/svg" d="m208 224h16v64h-16v16h48v-16h-16v-64h16v-16h-48zm0 0" fill="#ffffff" data-original="#000000" style="" class=""/></g></svg>
