<svg height="512" viewBox="0 0 51 56" width="512" xmlns="http://www.w3.org/2000/svg"><g id="Page-1" fill="none" fill-rule="evenodd"><g id="045---Gaming-Pc-Options" fill="rgb(0,0,0)" fill-rule="nonzero"><circle id="Oval" cx="15" cy="35.988" r="2"/><path id="Shape" d="m13.382 39.64c-.3335609-.1530171-.6444775-.3512096-.924-.589-.8545429.5846308-1.4606252 1.4666588-1.7 2.474.8560022.6611788 1.8544718 1.1135033 2.916 1.321-.3868162-1.0222866-.4877653-2.1306524-.292-3.206z"/><path id="Shape" d="m18.652 37.6c-.1525858.3344088-.3508069.6460434-.589.926.5823384.8575657 1.4645321 1.4661473 2.473 1.706.6618675-.8560834 1.114566-1.8549649 1.322-2.917-.6821982.2584835-1.4054754.3916208-2.135.393-.3594585-.004837-.7178127-.0409735-1.071-.108z"/><path id="Shape" d="m18.724 34.558c.1291671.3445218.2099362.7052909.24 1.072 1.0205143.1906883 2.0754425-.0076682 2.957-.556-.1385496-1.0724958-.5258506-2.0977648-1.131-2.994-.449161.9993516-1.1637314 1.856421-2.066 2.478z"/><path id="Shape" d="m11.036 36.344c-1.0207645-.1902933-2.07578263.0087937-2.957.558.13790864 1.073893.52523747 2.1006055 1.131 2.998.44909466-.999663 1.1636599-1.8570721 2.066-2.479-.1300209-.3459954-.2108098-.7085354-.24-1.077z"/><path id="Shape" d="m16.43 39.713c-.3449117.1288413-.7060116.2092727-1.073.239-.1920966 1.0211435.0082516 2.0771679.561 2.957 1.0706847-.1389673 2.0941616-.5258957 2.989-1.13-.998767-.449664-1.8553893-1.16415-2.477-2.066z"/><path id="Shape" d="m28 49c0 .5522847-.4477153 1-1 1h-24c-.55228475 0-1-.4477153-1-1v-46c0-.55228475.44771525-1 1-1h24c.5522847 0 1 .44771525 1 1v.954c.482353-1.17259015 1.1354133-2.26742644 1.938-3.249-.1274438-.41302326-.505828-.69741648-.938-.705h-28c-.55228475 0-1 .44771525-1 1v50c0 .5522847.44771525 1 1 1h28c.5522847 0 1-.4477153 1-1v-33.79c-.8280873-.9995627-1.5021945-2.1172324-2-3.316z"/><path id="Shape" d="m11.35 34.369c.1520517-.3330196.3496044-.6433153.587-.922-.5826482-.857456-1.4646563-1.4662663-2.473-1.707-.66192626.8567993-1.11461389 1.8563418-1.322 2.919 1.02291221-.3872592 2.1322225-.4875398 3.208-.29z"/><path id="Shape" d="m19.618 56h6.764l1-2h-8.764z"/><path id="Shape" d="m3.618 56h6.764l1-2h-8.764z"/><path id="Shape" d="m16.617 32.337c.3342256.1523586.64556.3506029.925.589.8546081-.5850117 1.460673-1.467371 1.7-2.475-.8555722-.6604453-1.8532956-1.1123996-2.914-1.32.3860581 1.0225079.4859756 2.1309354.289 3.206z"/><path id="Shape" d="m13.371 19.651c-.3339878-.1523796-.6452753-.3502575-.925-.588-.856423.5837364-1.4643679 1.4658806-1.705 2.474.8561167.6609884 1.8545394 1.1132917 2.916 1.321-.3847881-1.0231945-.4836591-2.1318629-.286-3.207z"/><path id="Shape" d="m13.57 32.264c.3448663-.1291704.7059658-.2099383 1.073-.24.1922976-1.0211437-.0080645-2.0772414-.561-2.957-1.0705679.139434-2.0939406.5263229-2.989 1.13.9987545.450157 1.855336 1.1649547 2.477 2.067z"/><path id="Shape" d="m11.338 14.381c.1522762-.3332043.3498061-.6438007.587-.923-.5829671-.8569414-1.4648924-1.4653379-2.473-1.706-.66191279.8564318-1.11460761 1.8556477-1.322 2.918 1.02315399-.3862757 2.1322828-.4861941 3.208-.289z"/><circle id="Oval" cx="14.988" cy="16" r="2"/><path id="Shape" d="m13.558 12.276c.3451814-.1292728.7066253-.2100424 1.074-.24.1922031-1.0212699-.0085319-2.07745048-.562-2.957-1.0706397.13914702-2.0940765.52606021-2.989 1.13.9988908.4499392 1.8555259 1.1647816 2.477 2.067z"/><path id="Shape" d="m11.264 17.43c-.1292761-.3455258-.2100444-.7073003-.24-1.075-1.0208894-.1898981-2.07588091.0095406-2.957.559.13882659 1.072747.52684474 2.0981012 1.133 2.994.44922141-.9987223 1.1629537-1.8556161 2.064-2.478z"/><path id="Shape" d="m26 48v-44h-22v44zm-11-3.023c-3.6358021.0004045-6.91382457-2.1894386-8.30546607-5.5483657-1.3916415-3.358927-.62282767-7.2254202 1.94792965-9.7964635 2.57075732-2.5710434 6.43716492-3.3402873 9.79624682-1.9490195 3.3590818 1.3912678 5.5492896 4.6690466 5.5492896 8.3048487-.0060598 4.9615851-4.0264156 8.9823882-8.988 8.989zm-.012-37.965c4.9639353 0 8.988 4.0240647 8.988 8.988s-4.0240647 8.988-8.988 8.988-8.988-4.0240647-8.988-8.988c.00661053-4.9611946 4.0268054-8.98138947 8.988-8.988z"/><path id="Shape" d="m47.036.466-.03 8.068c-.001359.59257911-.265428 1.15404622-.721 1.533l-5.015 4.169c-.7417381.6182224-1.8192619.6182224-2.561 0l-5.009-4.188c-.4556914-.38106515-.7184106-.944977-.717-1.539l.017-8.068c-2.2887097 1.88445093-3.7180298 4.61440265-3.9628772 7.568958-.2448475 2.9545553.715592 5.8825492 2.6628772 8.118042l.014.015c1.0249861 1.177603 2.2912956 2.1209405 3.713 2.766.3578471.1622768.5874985.5190776.587.912l-.02 32.16c-.0468345 1.0837647.3450042 2.1406836 1.087 2.932.8141598.7842508 1.9264086 1.1802595 3.053 1.087 2.1583312-.0887334 3.8598158-1.8688635 3.851-4.029v-32.151c.0001085-.3919648.2292035-.7477266.586-.91 3.4395261-1.5677529 5.8314003-4.793786 6.3321331-8.5404453.5007327-3.74665928-.9600224-7.48758771-3.8671331-9.9035547zm-6.036 51.534c0 .5522847-.4477153 1-1 1s-1-.4477153-1-1v-4c0-.5522847.4477153-1 1-1s1 .4477153 1 1z"/><path id="Shape" d="m18.641 17.616c-.1533004.3342467-.3518258.6458306-.59.926.5831396.8572142 1.4654852 1.4656546 2.474 1.706.6611924-.8563696 1.1135097-1.8551657 1.321-2.917-.6823337.2579976-1.4055218.3911184-2.135.393-.3591244-.0048899-.717142-.0410263-1.07-.108z"/><path id="Shape" d="m16.418 19.724c-.3448663.1291704-.7059658.2099383-1.073.24-.1919013 1.0212696.0088128 2.07734.562 2.957 1.0705948-.1393264 2.0939915-.5262245 2.989-1.13-.9992569-.4497856-1.8562531-1.1646408-2.478-2.067z"/><path id="Shape" d="m16.606 12.348c.3333797.1533495.6442526.3515142.924.589.8548193-.5843537 1.4609829-1.4665 1.7-2.474-.8553431-.66082618-1.8531603-1.11282301-2.914-1.32.3863594 1.0220749.4866242 2.1301746.29 3.205z"/><path id="Shape" d="m18.952 15.641c1.0207108.1907501 2.0758566-.0072234 2.958-.555-.1393048-1.072307-.5265421-2.0974071-1.131-2.994-.4501195.998752-1.1644935 1.8555859-2.066 2.478.1283679.3443613.2087873.7047347.239 1.071z"/></g></g></svg>