<?xml version="1.0"?>
<svg xmlns="http://www.w3.org/2000/svg" xmlns:xlink="http://www.w3.org/1999/xlink" xmlns:svgjs="http://svgjs.com/svgjs" version="1.1" width="512" height="512" x="0" y="0" viewBox="0 0 54 60" style="enable-background:new 0 0 512 512" xml:space="preserve" class=""><g><g xmlns="http://www.w3.org/2000/svg" id="Page-1" fill="none" fill-rule="evenodd"><g id="RENAME_073---Gaming-PC" fill="rgb(0,0,0)" fill-rule="nonzero"><path id="Shape" d="m50 0h-47c-1.65685425 0-3 1.34314575-3 3v54c0 1.6568542 1.34314575 3 3 3h4c.94364277-.0026567 1.83168896-.4466798 2.4-1.2l2.1-2.8h26l2.1 2.8c.5681068.7535656 1.4562835 1.1976539 2.4 1.2h8c2.209139 0 4-1.790861 4-4v-52c0-2.209139-1.790861-4-4-4zm-11 37h-2v-3c-.0044086-3.8641657-3.1358343-6.9955914-7-7h-2c-.5522847 0-1 .4477153-1 1s.4477153 1 1 1h2c2.7600532.0033061 4.9966939 2.2399468 5 5v3h-2v-3c0-1.6568542-1.3431458-3-3-3h-2c-.5522847 0-1 .4477153-1 1s.4477153 1 1 1h2c.5522847 0 1 .4477153 1 1v3h-25v-21c0-.5522847.44771525-1 1-1h31c.5522847 0 1 .4477153 1 1zm-34 2h38v3h-41v-3zm36.2 18.6-1.2-1.6h3c.5522847 0 1-.4477153 1-1s-.4477153-1-1-1h-37c-.55228475 0-1 .4477153-1 1s.44771525 1 1 1h3l-1.2 1.6c-.18957281.2509435-.48550152.3989078-.8.4h-4c-.55228475 0-1-.4477153-1-1v-13h41c1.1045695 0 2-.8954305 2-2v-3c0-1.1045695-.8954305-2-2-2h-2v-21c0-1.6568542-1.3431458-3-3-3h-31c-1.65685425 0-3 1.3431458-3 3v21h-2v-34c0-.55228475.44771525-1 1-1h44v56h-5c-.3144617-.0012466-.6103257-.1491786-.8-.4zm10.8-1.6c0 1.1045695-.8954305 2-2 2h-1v-56h1c1.1045695 0 2 .8954305 2 2z" fill="#ffffff" data-original="#000000" style="" class=""/><path id="Shape" d="m7 4c-1.65685425 0-3 1.34314575-3 3s1.34314575 3 3 3 3-1.34314575 3-3-1.34314575-3-3-3zm0 4c-.55228475 0-1-.44771525-1-1s.44771525-1 1-1 1 .44771525 1 1-.44771525 1-1 1z" fill="#ffffff" data-original="#000000" style="" class=""/><path id="Shape" d="m42 4c-1.6568542 0-3 1.34314575-3 3s1.3431458 3 3 3 3-1.34314575 3-3-1.3431458-3-3-3zm0 4c-.5522847 0-1-.44771525-1-1s.4477153-1 1-1 1 .44771525 1 1-.4477153 1-1 1z" fill="#ffffff" data-original="#000000" style="" class=""/><path id="Shape" d="m7 46c-1.65685425 0-3 1.3431458-3 3s1.34314575 3 3 3 3-1.3431458 3-3-1.34314575-3-3-3zm0 4c-.55228475 0-1-.4477153-1-1s.44771525-1 1-1 1 .4477153 1 1-.44771525 1-1 1z" fill="#ffffff" data-original="#000000" style="" class=""/><path id="Shape" d="m42 46c-1.6568542 0-3 1.3431458-3 3s1.3431458 3 3 3 3-1.3431458 3-3-1.3431458-3-3-3zm0 4c-.5522847 0-1-.4477153-1-1s.4477153-1 1-1 1 .4477153 1 1-.4477153 1-1 1z" fill="#ffffff" data-original="#000000" style="" class=""/><path id="Shape" d="m17 17.012c-4.9639353 0-8.988 4.0240647-8.988 8.988s4.0240647 8.988 8.988 8.988 8.988-4.0240647 8.988-8.988c-.0066105-4.9611946-4.0268054-8.9813895-8.988-8.988zm6.921 8.07c-.8808866.5500578-1.9358607.7502068-2.957.561-.0299596-.3670497-.1107305-.7281632-.24-1.073.9019908-.6218835 1.6164895-1.4788669 2.066-2.478.6044385.8951269.9917026 1.9189285 1.131 2.99zm-6.921 2.918c-1.1045695 0-2-.8954305-2-2s.8954305-2 2-2 2 .8954305 2 2-.8954305 2-2 2zm2.542-5.062c-.2787232-.2376126-.5890023-.4354912-.922-.588.1946828-1.0759821.0941182-2.1846121-.291-3.208 1.0622756.2070599 2.0614923.6594126 2.918 1.321-.2408526 1.0082876-.848719 1.8906743-1.705 2.475zm-2.894-.9c-.368819.0289924-.7317165.1097859-1.078.24-.621664-.9020453-1.4782455-1.616843-2.477-2.067.9124666-.6166089 1.958661-1.0070464 3.052-1.139l-.045.028c.5461515.874631.7418736 1.9232445.548 2.936zm-2.19 7.026c.280186.2394111.592561.4383482.928.591-.1970358 1.0727709-.0985181 2.1789347.285 3.2-1.0621966-.2073074-2.0613585-.6596353-2.918-1.321.2415311-1.0071861.8493279-1.8884023 1.705-2.472zm2.9.9c.3664017-.0299504.726856-.1107244 1.071-.24.621664.9020453 1.4782455 1.616843 2.477 2.067-.8960094.6048725-1.9208873.9921552-2.993 1.131-.5498371-.8813419-.7476278-1.9374155-.554-2.958zm-5.9-8.212c1.0081076.2406621 1.8900329.8490586 2.473 1.706-.2385072.2808538-.4373608.5930977-.591.928-1.0731304-.1941151-2.1787746-.0946071-3.2.288.2068969-1.0640918.6603613-2.0648645 1.324-2.922zm-1.385 5.165c.8793032-.554094 1.9359824-.7542091 2.957-.56.0299596.3670497.1107305.7281632.24 1.073-.9019908.6218835-1.6164895 1.4788669-2.066 2.478-.6021632-.8961183-.9873379-1.9201696-1.125-2.991zm12.457 3.331c-1.0081076-.2406621-1.8900329-.8490586-2.473-1.706.2383747-.2803871.4369142-.5923298.59-.927.3550903.0681062.7154731.1049141 1.077.11.7277575-.0028003 1.4488979-.1383531 2.128-.4-.2047279 1.0636247-.6553983 2.0646199-1.316 2.923z" fill="#ffffff" data-original="#000000" style="" class=""/><path id="Shape" d="m35 17h-2c-1.1045695 0-2 .8954305-2 2v5c0 1.1045695.8954305 2 2 2h2c1.1045695 0 2-.8954305 2-2v-5c0-1.1045695-.8954305-2-2-2zm-2 7v-5h2v5z" fill="#ffffff" data-original="#000000" style="" class=""/><circle id="Oval" cx="9" cy="18" r="1" fill="#ffffff" data-original="#000000" style="" class=""/><circle id="Oval" cx="26" cy="18" r="1" fill="#ffffff" data-original="#000000" style="" class=""/><circle id="Oval" cx="9" cy="35" r="1" fill="#ffffff" data-original="#000000" style="" class=""/><circle id="Oval" cx="26" cy="35" r="1" fill="#ffffff" data-original="#000000" style="" class=""/></g></g></g></svg>
