<?xml version="1.0"?>
<svg xmlns="http://www.w3.org/2000/svg" xmlns:xlink="http://www.w3.org/1999/xlink" xmlns:svgjs="http://svgjs.com/svgjs" version="1.1" width="512" height="512" x="0" y="0" viewBox="0 0 512.027 512.027" style="enable-background:new 0 0 512 512" xml:space="preserve"><g><g xmlns="http://www.w3.org/2000/svg"><g id="Page-1_63_"><g id="_x30_64---Tools" transform="translate(-1)"><path id="Shape_331_" d="m501.784 67.568c-2.887-.722-5.94.135-8.03 2.253l-48.854 48.794c-13.95 13.931-36.552 13.916-50.483-.034s-13.916-36.552.034-50.483l48.725-48.811c2.107-2.101 2.967-5.148 2.27-8.041s-2.851-5.213-5.683-6.124c-35.18-11.35-73.731-3.551-101.732 20.582-28.001 24.132-41.406 61.11-35.373 97.58l-31.829 31.898-145.186-145.18c-13.501-12.904-34.764-12.904-48.265 0l-66.372 66.373c-13.325 13.329-13.325 34.935 0 48.265l145.178 145.186-31.906 31.829c-36.469-6.034-73.448 7.37-97.579 35.372-24.132 28.002-31.928 66.554-20.574 101.733.914 2.826 3.231 4.973 6.118 5.67s5.928-.158 8.03-2.256l48.819-48.734c6.684-6.73 15.782-10.506 25.267-10.487h.051c19.638.12 35.544 15.981 35.721 35.618.001 9.522-3.799 18.651-10.556 25.361l-48.725 48.81c-2.098 2.102-2.953 5.143-2.256 8.03s2.844 5.204 5.67 6.118c35.178 11.348 73.726 3.547 101.724-20.586s41.399-61.109 35.364-97.575l35.507-35.507c2.397 1.783 5.089 3.129 7.953 3.977 2.28.644 4.637.971 7.006.973 6.755-.009 13.226-2.719 17.971-7.526l14.814-14.814 113.493 113.493c.77.775 1.389 1.687 1.826 2.688l13.781 32.171c2.878 6.697 8.474 11.849 15.386 14.165l37.035 12.356c2.631.873 5.385 1.32 8.158 1.323 6.774-.006 13.266-2.711 18.039-7.518l3.191-3.183c6.883-6.842 9.279-17.001 6.178-26.197l-12.339-37.035c-2.311-6.937-7.479-12.555-14.199-15.437l-32.188-13.798c-.991-.425-1.892-1.037-2.654-1.801l-113.493-113.494 14.814-14.814c6.59-6.499 9.106-16.078 6.562-24.977-.854-2.863-2.203-5.555-3.985-7.953l35.507-35.507c36.464 6.036 73.439-7.362 97.572-35.356s31.939-66.538 20.598-101.715c-.909-2.824-3.22-4.972-6.101-5.675zm-305.681 312.32c-.105.094-.202.197-.29.307l-.077.077c-2.064 2.285-2.719 5.514-1.707 8.422 5.646 28.384-2.874 57.74-22.837 78.692-19.964 20.952-48.874 30.879-77.498 26.609l37.871-37.973c15.082-15.081 19.609-37.755 11.474-57.471s-27.334-32.601-48.662-32.658h-.068c-14.012-.031-27.454 5.543-37.333 15.479l-37.966 37.949c-4.265-28.66 5.699-57.6 26.703-77.56s50.415-28.436 78.82-22.715c3.038.933 6.343.12 8.602-2.116l35.098-34.987 13.474 13.474c4.138 4.123 9.554 6.717 15.36 7.356l25.805 2.722c3.568.384 6.514 2.959 7.373 6.443l6.605 26.769c0 .111.094.205.128.316zm242.133 39.254c2.296 2.309 5.017 4.152 8.013 5.427l32.179 13.79c2.233.956 3.952 2.818 4.727 5.12l12.348 37.018c1.024 3.069.224 6.452-2.065 8.738l-3.191 3.183c-2.282 2.282-5.657 3.082-8.721 2.065l-37.035-12.348c-2.301-.786-4.161-2.51-5.12-4.745l-13.79-32.171c-1.279-2.997-3.121-5.72-5.427-8.021l-113.494-113.493 9.045-9.054 9.054-9.045zm-98.654-152.423-20.838 20.855-15.087 15.087-35.925 35.934c-2.178 2.177-5.36 3.012-8.326 2.185s-5.257-3.189-5.993-6.179l-6.647-26.786c-2.602-10.445-11.443-18.158-22.144-19.319l-25.728-2.748c-1.934-.214-3.739-1.078-5.12-2.449l-19.456-19.473-151.246-151.253c-6.663-6.665-6.663-17.468 0-24.132l66.372-66.372c6.751-6.45 17.381-6.45 24.132 0l151.211 151.202 19.524 19.516c1.377 1.377 2.241 3.184 2.449 5.12l2.739 25.719c1.146 10.72 8.866 19.582 19.328 22.187l26.769 6.596c2.994.735 5.358 3.027 6.186 5.996s-.01 6.154-2.192 8.331zm130.355-98.073c-21.039 21.096-51.26 30.228-80.461 24.311-3.042-.932-6.351-.116-8.61 2.125l-40.849 40.858c-.111 0-.205-.102-.324-.128l-26.778-6.605c-3.463-.863-6.023-3.791-6.417-7.339l-2.739-25.719c-.627-5.809-3.223-11.23-7.356-15.36l-13.508-13.534 34.987-35.098c.123-.116.24-.239.35-.367 2.064-2.285 2.719-5.514 1.707-8.422-5.672-28.401 2.842-57.786 22.819-78.755 19.978-20.969 48.915-30.896 77.558-26.606l-37.931 37.99c-13.57 13.28-18.959 32.827-14.112 51.185s19.182 32.697 37.539 37.548 37.904-.533 51.188-14.1l38-37.948c4.218 27.867-5.089 56.078-25.063 75.964z" fill="#ffffff" data-original="#000000" style=""/><path id="Shape_330_" d="m83.838 70.768c-3.348-3.234-8.671-3.188-11.962.104s-3.338 8.614-.104 11.962l149.333 149.333c3.348 3.234 8.671 3.188 11.962-.104 3.292-3.292 3.338-8.614.104-11.962z" fill="#ffffff" data-original="#000000" style=""/></g></g></g></g></svg>
