<svg xmlns="http://www.w3.org/2000/svg" xml:space="preserve" width="2048" height="2048" style="shape-rendering:geometricPrecision;text-rendering:geometricPrecision;image-rendering:optimizeQuality;fill-rule:evenodd;clip-rule:evenodd"><defs><style>.fil0,.fil1{fill:#414141}.fil0{fill-rule:nonzero}</style></defs><g id="Layer_x0020_1"><g id="_424298008"><path class="fil0" d="M1468 894v883c0 18-14 32-32 32H897c-18 0-32-14-32-32V894c0-143 79-236 179-276 39-16 80-23 122-23s83 8 122 23c101 40 179 133 179 276zm-452 480c7 18 16 33 26 45 11 13 23 25 35 34 6 4 12 8 17 12-9-20-11-41-8-62 4-30 19-61 39-88 24-33 40-69 48-93 12 25 33 68 60 129 11 24 14 46 13 65-1 22-9 41-17 55 11-5 21-12 31-21h1c11-10 22-21 32-34 4-5 7-10 11-16 3-6 7-11 10-18 5-11 14-35 14-70-1-35-12-81-49-133-34-46-55-90-68-128-18-51-20-92-20-117l-6 6c-5 5-9 10-13 15-15 19-26 41-33 63-8 24-12 49-12 74 0 15-1 30-2 42-2 13-4 23-7 31-4 12-10 20-17 23-6 3-11 4-17 1-5-2-9-6-12-11-5-9-9-25-9-48-6 7-13 16-20 28-8 14-16 32-24 56-5 16-9 31-11 45-3 15-4 29-4 40v19c1 21 5 40 11 56z"/><path class="fil1" d="M1103 384h128c18 0 32 14 32 32v210c0 18-14 32-32 32h-128c-18 0-32-14-32-32V416c0-18 14-32 32-32zm76 88h2c4-3 10-4 14-1 5 3 7 8 6 13l1 1c5-1 11 1 13 6 3 5 2 11-1 14v2c5 2 8 6 8 12 0 5-4 10-8 12v2c3 4 4 10 1 14-3 5-8 7-13 6l-1 1c1 5-1 11-6 13-5 3-11 2-14-1h-2c-2 5-6 8-12 8-5 0-10-4-12-8h-2c-4 3-10 4-14 1-5-3-7-8-6-13l-1-1c-5 1-11-1-13-6-3-5-2-11 1-14v-2c-5-2-8-6-8-12 0-5 4-10 8-12v-2c-3-4-4-10-1-14 3-5 8-7 13-6l1-1c-1-5 1-11 6-13 5-3 11-2 14 1h2c2-5 6-8 12-8 5 0 10 4 12 8zM525 243l438 139c17 5 26 23 21 40-3 10-11 18-21 21L522 583c-3 1-6 1-8 1h-4c-33 0-61-77-61-173 0-95 27-173 61-173h4c4 0 8 1 11 3zm-13 45c18 0 33 56 33 125s-15 125-33 125-33-56-33-125 15-125 33-125z"/><path class="fil0" d="M1222 416c0 18-25 32-55 32s-55-14-55-32V288c0-18 25-32 55-32s55 14 55 32v128z"/><path class="fil0" d="M944 446c-18 0-32-14-32-32s14-32 32-32l154 3 10-29 110-2 110-66 249-27 1 39c-110 14-194 26-241 41-36 12-40 18-151 100-5 3-11 5-18 5H944z"/><path class="fil1" d="M1239 464c-23 0 8-19 8-42s-31-42-8-42c78 0 202 30 259 82 57 53 93 125 99 203 3 36 1 74 1 110 0 23-19 42-42 42s-42-19-42-42v-56c0-51-11-70-12-103-2-62-39-56-43-75-8-33-22-46-54-49-15-2-32-22-55-26-6-1-103-2-112-2z"/><circle class="fil1" cx="1167" cy="519" r="18"/></g></g><path style="fill:none" d="M0 0h2048v2048H0z"/></svg>