<?xml version="1.0" encoding="utf-8"?>
<!-- Generator: Adobe Illustrator 18.0.0, SVG Export Plug-In . SVG Version: 6.00 Build 0)  -->
<!DOCTYPE svg PUBLIC "-//W3C//DTD SVG 1.1//EN" "http://www.w3.org/Graphics/SVG/1.1/DTD/svg11.dtd">
<svg version="1.1" id="ecommerce_1_" xmlns="http://www.w3.org/2000/svg" xmlns:xlink="http://www.w3.org/1999/xlink" x="0px"
	 y="0px" viewBox="0 0 115 115" style="enable-background:new 0 0 115 115;" xml:space="preserve">
<style type="text/css">
	.st0{fill:#FFEEAD;}
	.st1{fill:#C9B77D;}
	.st2{fill:#99734A;}
	.st3{fill:#FF6F69;}
	.st4{fill:#96CEB4;}
	.st5{fill:none;}
	.st6{fill:#AA9865;}
	.st7{fill:#71A58A;}
	.st8{fill:#FFCC5C;}
	.st9{fill:#825E3B;}
	.st10{fill:#639376;}
	.st11{fill:#E05858;}
	.st12{fill:#C1821E;}
	.st13{fill:#D6A041;}
	.st14{fill:#B28559;}
	.st15{fill:#BF4343;}
	.st16{fill:#D3C089;}
	.st17{fill:#7C5C3C;}
	.st18{fill:#FDCC5C;}
	.st19{fill:#FFFFFF;}
</style>
<g id="recommended_1_">
	<g>
		<g>
			<g>
				<path class="st0" d="M109.459,64.101c0-3.497-2.861-6.358-6.358-6.358H79.985c1.121-1.516,1.931-2.733,2.418-3.701
					c1.51-2.998,3.357-7.035,4.07-12.556c0.712-5.521-2.672-12.111-5.521-12.111c-2.85,0-4.809,1.069-5.165,3.206
					c-0.356,2.137-6.634,12.423-10.553,15.629c-3.294,2.695-11.541,8.566-14.087,10.37c-5.189,0.765-9.177,5.224-9.177,10.626
					v34.997c0,5.347,3.906,9.77,9.018,10.602h41.125c0.194-0.058,0.393-0.104,0.578-0.18c0.058-0.024,0.112-0.054,0.17-0.079
					c0.298-0.134,0.584-0.29,0.856-0.466c0.051-0.033,0.104-0.062,0.154-0.096c0.291-0.201,0.56-0.427,0.813-0.672
					c0.059-0.057,0.115-0.116,0.172-0.175c0.247-0.258,0.48-0.529,0.682-0.824h-0.001c0.692-1.018,1.1-2.244,1.1-3.561v-2.27
					c0-2.356-1.313-4.399-3.23-5.497h2.215c0.391,0,0.771-0.047,1.143-0.116c0.079-0.015,0.157-0.028,0.235-0.045
					c0.357-0.08,0.703-0.186,1.034-0.323c0.058-0.024,0.112-0.054,0.17-0.079c0.298-0.134,0.584-0.29,0.856-0.466
					c0.051-0.033,0.103-0.061,0.153-0.095c0.29-0.201,0.56-0.427,0.813-0.672c0.059-0.057,0.115-0.116,0.172-0.176
					c0.247-0.258,0.481-0.528,0.682-0.824l-0.001,0c0.693-1.018,1.1-2.244,1.1-3.561v-2.271c0-2.356-1.313-4.399-3.23-5.497h1.146
					c0.391,0,0.771-0.047,1.143-0.116c0.079-0.015,0.157-0.028,0.235-0.045c0.357-0.08,0.703-0.185,1.034-0.323
					c0.058-0.024,0.112-0.053,0.169-0.079c0.299-0.134,0.584-0.29,0.857-0.466c0.051-0.033,0.104-0.062,0.153-0.096
					c0.291-0.201,0.56-0.427,0.814-0.672c0.059-0.057,0.115-0.116,0.172-0.175c0.247-0.258,0.481-0.528,0.682-0.824h-0.001
					c0.693-1.018,1.1-2.244,1.1-3.561v-2.271c0-2.356-1.313-4.399-3.23-5.497h0.078c0.392,0,0.771-0.048,1.144-0.116
					c0.079-0.015,0.157-0.028,0.234-0.045c0.357-0.08,0.703-0.185,1.035-0.323c0.058-0.024,0.112-0.053,0.169-0.079
					c0.299-0.134,0.584-0.29,0.857-0.466c0.051-0.033,0.104-0.061,0.153-0.096c0.291-0.2,0.56-0.427,0.814-0.672
					c0.059-0.057,0.115-0.116,0.172-0.175c0.247-0.258,0.481-0.528,0.682-0.824h-0.001c0.693-1.018,1.1-2.244,1.1-3.561V64.101z"/>
			</g>
		</g>
		<path class="st1" d="M92.112,114.803c0.194-0.058,0.393-0.104,0.578-0.18c0.058-0.024,0.112-0.054,0.17-0.079
			c0.298-0.134,0.584-0.29,0.856-0.466c0.051-0.033,0.104-0.062,0.154-0.096c0.291-0.201,0.56-0.427,0.813-0.672
			c0.059-0.057,0.115-0.116,0.172-0.175c0.247-0.258,0.48-0.529,0.682-0.824h-0.001c0.636-0.935,1.015-2.05,1.075-3.246
			c-0.049,0.074-0.096,0.145-0.149,0.232c-0.571,0.951-1.427,1.728-2.405,2.374c-2.543,1.077-16.474,1.329-25.617,1.108
			c-9.108-0.219-13.621-1.102-13.662-1.11c-2.065-0.787-3.643-1.563-4.561-2.251c-8.718-6.539-6.103-22.449-6.103-22.449
			l-2.146,6.118v11.115c0,5.347,3.906,9.77,9.018,10.602h2.509H92.112z"/>
		<g>
			<g>
				<path class="st3" d="M31.647,61.033H9.854c-2.835,0-5.133,2.298-5.133,5.134v42.631c0,2.835,2.298,5.133,5.133,5.133h21.793
					c2.835,0,5.134-2.298,5.134-5.133V66.167C36.78,63.332,34.482,61.033,31.647,61.033z"/>
			</g>
		</g>
		<g>
			<g>
				<path class="st11" d="M31.647,61.033h-2.059v42.534c0,2.835-2.298,5.133-5.134,5.133H4.721v0.098
					c0,2.835,2.298,5.133,5.133,5.133h21.793c2.835,0,5.134-2.298,5.134-5.133V66.167C36.78,63.332,34.482,61.033,31.647,61.033z"/>
			</g>
		</g>
		<g>
			<g>
				<path class="st4" d="M40.536,58.896h-4.305c-2.205,0-3.992,1.787-3.992,3.992v48.12c0,2.205,1.787,3.992,3.992,3.992h4.305
					c2.205,0,3.992-1.787,3.992-3.992v-48.12C44.528,60.683,42.74,58.896,40.536,58.896z"/>
			</g>
		</g>
		<g>
			<g>
				<path class="st7" d="M40.536,109.115h-4.305c-2.205,0-3.992-1.787-3.992-3.993v5.885c0,2.205,1.787,3.992,3.992,3.992h4.305
					c2.205,0,3.992-1.787,3.992-3.992v-5.885C44.528,107.328,42.74,109.115,40.536,109.115z"/>
			</g>
		</g>
		<g>
			<g>
				<path class="st1" d="M80.132,53.622c-1.588,1.482-4.13,3.26-5.728,4.121h5.581c1.012-1.25,2.155-3.119,2.714-4.294
					c1.336-2.808,1.944-3.898,2.867-7.39C84.559,47.756,82.049,51.833,80.132,53.622z"/>
			</g>
		</g>
		<path class="st1" d="M104.479,72.568c0.357-0.08,0.703-0.185,1.035-0.323c0.058-0.024,0.112-0.053,0.169-0.079
			c0.299-0.134,0.584-0.29,0.857-0.466c0.051-0.033,0.104-0.061,0.153-0.096c0.291-0.2,0.56-0.427,0.814-0.672
			c0.059-0.057,0.115-0.116,0.172-0.175c0.247-0.258,0.481-0.528,0.682-0.824h-0.001c0.357-0.524,0.634-1.104,0.822-1.722
			c-3.585,3.195-10.701,3.879-10.701,3.879l4.62,0.641c0.392,0,0.771-0.048,1.144-0.116
			C104.323,72.598,104.401,72.586,104.479,72.568z"/>
		<path class="st1" d="M99.895,86.855c0.391,0,0.771-0.047,1.143-0.116c0.079-0.015,0.157-0.028,0.235-0.045
			c0.357-0.08,0.703-0.185,1.034-0.323c0.058-0.024,0.112-0.053,0.169-0.079c0.299-0.134,0.584-0.29,0.857-0.466
			c0.051-0.033,0.104-0.062,0.153-0.096c0.291-0.201,0.56-0.427,0.814-0.672c0.059-0.057,0.115-0.116,0.172-0.175
			c0.247-0.258,0.481-0.528,0.682-0.824h-0.001c0.686-1.008,1.09-2.221,1.097-3.524c-0.099,0.128-0.203,0.272-0.318,0.451
			c-2.811,4.382-11.902,5.248-11.902,5.248l4.719,0.622H99.895z"/>
		<path class="st1" d="M93.406,100.981h2.215c0.391,0,0.771-0.047,1.143-0.116c0.079-0.015,0.157-0.028,0.235-0.045
			c0.357-0.08,0.703-0.186,1.034-0.323c0.058-0.024,0.112-0.054,0.17-0.079c0.298-0.134,0.584-0.29,0.856-0.466
			c0.051-0.033,0.103-0.061,0.153-0.095c0.29-0.201,0.56-0.427,0.813-0.672c0.059-0.057,0.115-0.116,0.172-0.176
			c0.247-0.258,0.481-0.528,0.682-0.824l-0.001,0c0.686-1.008,1.089-2.22,1.097-3.522c-0.133,0.154-0.281,0.353-0.446,0.611
			c-2.811,4.382-11.902,5.248-11.902,5.248l3.852,0.508C93.454,101.015,93.431,100.996,93.406,100.981z"/>
	</g>
	<g>
		<g>
			<path class="st8" d="M81.752,0c-2.271,0-4.112,1.841-4.112,4.112s1.841,10.455,4.112,10.455c2.271,0,4.112-8.185,4.112-10.455
				S84.023,0,81.752,0z"/>
		</g>
	</g>
	<g>
		<g>
			<path class="st8" d="M57.337,24.415c-2.271,0-4.112,1.841-4.112,4.112s1.841,4.112,4.112,4.112s10.455-1.841,10.455-4.112
				S59.608,24.415,57.337,24.415z"/>
		</g>
	</g>
	<g>
		<g>
			<path class="st8" d="M106.168,24.415c-2.271,0-10.455,1.841-10.455,4.112s8.185,4.112,10.455,4.112
				c2.271,0,4.112-1.841,4.112-4.112S108.438,24.415,106.168,24.415z"/>
		</g>
	</g>
	<g>
		<g>
			<path class="st8" d="M67.395,8.355c-1.606-1.606-4.209-1.606-5.815,0c-1.606,1.606-1.606,4.209,0,5.815
				c1.606,1.606,8.695,6.092,10.3,4.486C73.487,17.05,69.001,9.961,67.395,8.355z"/>
		</g>
	</g>
	<g>
		<g>
			<path class="st8" d="M101.924,8.355c-1.606-1.606-4.209-1.606-5.815,0c-1.606,1.606-6.091,8.695-4.486,10.3
				c1.606,1.606,8.695-2.88,10.3-4.486C103.53,12.564,103.53,9.961,101.924,8.355z"/>
		</g>
	</g>
</g>
</svg>
