<?xml version="1.0" encoding="UTF-8" standalone="no"?>
<svg
   xmlns:dc="http://purl.org/dc/elements/1.1/"
   xmlns:cc="http://creativecommons.org/ns#"
   xmlns:rdf="http://www.w3.org/1999/02/22-rdf-syntax-ns#"
   xmlns:svg="http://www.w3.org/2000/svg"
   xmlns="http://www.w3.org/2000/svg"
   xmlns:sodipodi="http://sodipodi.sourceforge.net/DTD/sodipodi-0.dtd"
   xmlns:inkscape="http://www.inkscape.org/namespaces/inkscape"
   version="1.1"
   id="svg2"
   xml:space="preserve"
   width="774.21332"
   height="402.66666"
   viewBox="0 0 774.21332 402.66666"
   sodipodi:docname="Crucial_Technology.eps"><metadata
     id="metadata8"><rdf:RDF><cc:Work
         rdf:about=""><dc:format>image/svg+xml</dc:format><dc:type
           rdf:resource="http://purl.org/dc/dcmitype/StillImage" /></cc:Work></rdf:RDF></metadata><defs
     id="defs6"><clipPath
       clipPathUnits="userSpaceOnUse"
       id="clipPath56"><path
         d="m 3475.33,2085.39 c -10.32,0 -20.25,-1.66 -29.56,-4.77 L 1083.64,1896.23 h 2382.72 v 0.48 c 2.91,-0.32 5.96,-0.48 8.97,-0.48 52.18,0 94.59,42.34 94.59,94.59 0,52.23 -42.41,94.57 -94.59,94.57"
         id="path54" /></clipPath><linearGradient
       x1="0"
       y1="0"
       x2="1"
       y2="0"
       gradientUnits="userSpaceOnUse"
       gradientTransform="matrix(2486.28,0,0,-229.17,1083.64,2105.4)"
       spreadMethod="pad"
       id="linearGradient62"><stop
         style="stop-opacity:1;stop-color:#ffffff"
         offset="0"
         id="stop58" /><stop
         style="stop-opacity:1;stop-color:#1478c7"
         offset="1"
         id="stop60" /></linearGradient></defs><sodipodi:namedview
     pagecolor="#ffffff"
     bordercolor="#666666"
     borderopacity="1"
     objecttolerance="10"
     gridtolerance="10"
     guidetolerance="10"
     inkscape:pageopacity="0"
     inkscape:pageshadow="2"
     inkscape:window-width="640"
     inkscape:window-height="480"
     id="namedview4" /><g
     id="g10"
     inkscape:groupmode="layer"
     inkscape:label="ink_ext_XXXXXX"
     transform="matrix(1.3333333,0,0,-1.3333333,0,402.66667)"><g
       id="g12"
       transform="scale(0.1)"><path
         d="M 5806.64,0 H 0 V 3020 H 5806.64 V 0"
         style="fill:#ffffff;fill-opacity:1;fill-rule:nonzero;stroke:none"
         id="path14" /><path
         d="m 2512.02,857.707 c 2.31,4.473 22.47,41.727 25.5,46.531 h 0.35 l 4.29,-46.531 z m -8.92,-52.434 1.25,6.786 -9.99,0.726 c -3.91,0.153 -4.09,3.024 -2.3,6.582 4.98,9.442 9.62,19.434 15.33,29.774 h 35.65 l 2.68,-29.774 c 0.37,-4.269 -0.54,-6.429 -4.1,-6.582 l -9.27,-0.726 -1.43,-6.786 h 53.49 l 1.43,6.786 -7.32,0.519 c -4.09,0.36 -4.8,3.059 -5.51,8.047 -1.44,13 -3.93,38.496 -5.37,51.516 l -6.05,56.523 h -21.04 l -34.59,-61.152 c -10.71,-18.918 -21.94,-38.496 -26.92,-46.731 -3.58,-5.89 -6.25,-7.664 -11.6,-8.203 l -4.8,-0.519 -1.26,-6.786 h 41.72"
         style="fill:#706d6e;fill-opacity:1;fill-rule:nonzero;stroke:none"
         id="path16" /><path
         d="m 2712.42,813.477 c -8.55,0 -13.9,1.414 -12.12,9.101 l 20.16,90.754 c 1.24,5.887 3.73,7.145 15.15,7.145 25.48,0 29.6,-17.313 29.6,-34.247 0,-21.023 -11.42,-72.753 -52.79,-72.753 z m 0.19,-8.204 c 38.87,0 57.59,13.02 69.89,32.461 9.63,14.981 11.77,32.09 11.77,39.395 0,19.094 -5.89,31.926 -16.4,39.93 -10.53,8.031 -25.67,11.418 -46.9,11.605 h -49.03 l -1.79,-6.769 9.1,-0.899 c 4.99,-0.359 4.81,-3.398 3.38,-9.785 l -19.78,-88.465 c -1.43,-6.406 -2.68,-9.629 -7.85,-9.961 l -8.02,-0.726 -1.6,-6.786 h 57.23"
         style="fill:#706d6e;fill-opacity:1;fill-rule:nonzero;stroke:none"
         id="path18" /><path
         d="m 2869.71,831.848 c -7.5,-14.993 -18.39,-28.711 -35.69,-28.711 -11.94,0 -16.22,7.488 -12.48,21.218 l 13.73,50.821 c 1.26,4.804 0.54,7.148 -3.04,7.48 l -10.33,1.086 1.43,5.887 41.03,5.144 1.04,-1.05 -18.36,-67.942 c -1.25,-4.617 -1.41,-8.39 1.96,-8.39 4.09,0 10.89,9.464 15.36,17.492 z m -27.3,86.129 c 0,7.648 4.98,15.695 15.52,15.695 7.85,0 14.24,-4.317 14.24,-13.035 0,-9.805 -6.23,-15.696 -15.31,-15.696 -8.58,0 -14.45,4.993 -14.45,13.036"
         style="fill:#706d6e;fill-opacity:1;fill-rule:nonzero;stroke:none"
         id="path20" /><path
         d="m 2924.77,829.707 c -1.76,-7.664 0.36,-12.316 5.89,-12.316 12.12,-0.157 28.01,25.16 29.43,51.195 0,9.266 -0.37,16.211 -2.15,22.461 5.88,2.312 12.66,3.726 19.08,3.726 1.43,0 5.54,-6.226 5.54,-13.914 -0.18,-11.035 -8.58,-30.468 -22.31,-47.578 -12.82,-16.23 -28.15,-30.144 -44.93,-30.144 -13.73,0 -19.77,7.847 -15.85,24.961 l 10.85,46.875 c 1.27,5.386 0.54,7.851 -2.65,8.23 l -10.53,1.074 1.25,5.868 40.28,4.628 0.92,-0.878 -14.82,-64.188"
         style="fill:#706d6e;fill-opacity:1;fill-rule:nonzero;stroke:none"
         id="path22" /><path
         d="m 3054.6,831.848 c -7.5,-14.993 -18.38,-28.711 -35.69,-28.711 -11.94,0 -16.2,7.488 -12.47,21.218 l 13.74,50.821 c 1.24,4.804 0.53,7.148 -3.04,7.48 l -10.35,1.086 1.42,5.887 41.02,5.144 1.06,-1.05 -18.35,-67.942 c -1.26,-4.617 -1.42,-8.39 1.95,-8.39 4.1,0 10.9,9.464 15.34,17.492 z m -27.3,86.129 c 0,7.648 5,15.695 15.52,15.695 7.86,0 14.25,-4.317 14.25,-13.035 0,-9.805 -6.24,-15.696 -15.32,-15.696 -8.57,0 -14.45,4.993 -14.45,13.036"
         style="fill:#706d6e;fill-opacity:1;fill-rule:nonzero;stroke:none"
         id="path24" /><path
         d="m 3071.69,821.164 c 0,6.59 6.42,12.285 11.77,12.285 4.11,0 6.42,-2.48 7.84,-5.351 6.61,-13.207 11.6,-16.743 17.11,-16.743 5.35,0 9.28,3.743 9.28,9.27 -0.54,8.008 -7.85,14.621 -15.31,20.664 -7.5,6.074 -15.54,14.102 -16.05,24.621 -0.72,14.949 10.85,28.863 32.44,28.863 20.14,0 28.17,-9.597 28.17,-15.484 0,-7.148 -6.95,-10.547 -11.76,-10.547 -3.23,0 -5.18,1.082 -6.96,4.656 -5.01,9.618 -8.57,13.196 -13.2,13.196 -4.64,0 -8.56,-3.77 -8.37,-9.27 0.34,-6.785 5.15,-11.953 15.15,-19.465 8.04,-6.043 16.23,-14.949 16.23,-26.726 0,-14.793 -9.81,-27.996 -34.24,-27.996 -22.31,0 -32.1,10.183 -32.1,18.027"
         style="fill:#706d6e;fill-opacity:1;fill-rule:nonzero;stroke:none"
         id="path26" /><path
         d="m 3221.46,831.848 c -7.46,-14.993 -18.35,-28.711 -35.66,-28.711 -11.93,0 -16.22,7.488 -12.47,21.218 l 13.74,50.821 c 1.24,4.804 0.51,7.148 -3.04,7.48 l -10.35,1.086 1.43,5.887 41,5.144 1.08,-1.05 -18.35,-67.942 c -1.27,-4.617 -1.46,-8.39 1.93,-8.39 4.11,0 10.89,9.464 15.34,17.492 z m -27.27,86.129 c 0,7.648 5,15.695 15.5,15.695 7.85,0 14.27,-4.317 14.27,-13.035 0,-9.805 -6.23,-15.696 -15.33,-15.696 -8.55,0 -14.44,4.993 -14.44,13.036"
         style="fill:#706d6e;fill-opacity:1;fill-rule:nonzero;stroke:none"
         id="path28" /><path
         d="m 3270.14,824.355 c 0,11.961 3.56,28.36 9.29,41.36 5.5,12.312 12.11,20.879 20.49,20.879 8.39,0 10.16,-7.153 10.16,-14.614 0,-13.203 -10.54,-60.625 -29.23,-60.625 -6.61,0 -10.71,4.083 -10.71,13 z m 11.06,-21.218 c 22.46,0 35.3,9.265 43.68,22.644 8.19,13.02 11.06,26.387 11.06,34.414 0,27.481 -19.08,34.578 -37.44,34.578 -23,0 -35.66,-10.878 -43.69,-23.339 -8.2,-12.657 -10.51,-27.106 -10.51,-35.118 0,-19.265 11.04,-33.179 36.9,-33.179"
         style="fill:#706d6e;fill-opacity:1;fill-rule:nonzero;stroke:none"
         id="path30" /><path
         d="m 3361.09,803.137 18.34,71.836 c 1.43,4.851 0.73,7.351 -2.65,7.683 l -10.69,1.086 1.41,5.887 41.54,5.144 0.89,-0.878 -12.12,-38.688 h 1.06 c 11.06,20.684 27.29,39.566 45.64,39.566 15,0 17.46,-11.757 13.38,-25.828 l -13.38,-43.164 c -1.42,-4.617 -1.23,-8.39 1.97,-8.39 4.26,0 11.07,9.464 15.34,17.492 l 5.16,-3.211 c -7.31,-14.984 -18,-28.535 -35.82,-28.535 -10.89,0 -16.07,7.488 -12.14,21.218 l 13.57,45.665 c 1.57,5.332 1.95,10.507 -3.57,10.507 -8.58,0 -24.63,-23.906 -29.98,-37.285 -4.1,-10.312 -7.65,-19.765 -12.83,-37.969 l -25.12,-2.136"
         style="fill:#706d6e;fill-opacity:1;fill-rule:nonzero;stroke:none"
         id="path32" /><path
         d="m 3569.14,824.355 c 0,11.961 3.57,28.36 9.27,41.36 5.54,12.312 12.15,20.879 20.51,20.879 8.38,0 10.17,-7.153 10.17,-14.614 0,-13.203 -10.53,-60.625 -29.25,-60.625 -6.59,0 -10.7,4.083 -10.7,13 z m 11.07,-21.218 c 22.47,0 35.32,9.265 43.67,22.644 8.22,13.02 11.07,26.387 11.07,34.414 0,27.481 -19.08,34.578 -37.47,34.578 -23,0 -35.64,-10.878 -43.66,-23.339 -8.21,-12.657 -10.53,-27.106 -10.53,-35.118 0,-19.265 11.07,-33.179 36.92,-33.179"
         style="fill:#706d6e;fill-opacity:1;fill-rule:nonzero;stroke:none"
         id="path34" /><path
         d="m 3664.53,884.102 2.49,8.543 h 15.36 l 1.23,4.652 c 2.68,9.801 6.43,20.144 13.38,28.152 6.42,7.305 15.51,12.297 28.17,12.141 15.52,-0.188 25.49,-7.492 25.49,-15.695 0,-6.407 -6.76,-10.684 -12.31,-10.684 -4.27,0 -6.04,2.453 -7.46,5.332 -4.82,10.324 -7.15,12.812 -9.82,12.812 -2.85,0 -4.64,-3.191 -6.42,-10.671 l -6.22,-26.039 h 22.8 l -2.14,-8.543 h -22.28 l -17.31,-73.817 c -7.47,-31.926 -17.46,-47.617 -39.04,-48.156 -13.73,0 -21.39,5.723 -21.39,13.195 0,5.524 5,10.524 10.7,10.524 3.91,0 5.34,-2.84 6.96,-5.535 4.28,-7.481 6.58,-10 8.38,-10 1.42,0 2.67,1.621 3.38,4.855 l 21.93,108.934 h -15.88"
         style="fill:#706d6e;fill-opacity:1;fill-rule:nonzero;stroke:none"
         id="path36" /><path
         d="m 3784.88,812.059 6.62,0.519 c 4.07,0.36 6.93,2.86 8.73,8.926 1.77,6.055 3.57,13.016 6.23,26.394 l 13.54,63.313 c 1.43,6.387 1.62,9.426 -3.38,9.785 l -9.08,0.899 1.77,6.769 h 43.35 c 2.11,-13.723 4.61,-27.453 7.11,-41.191 l 8.04,-45.461 h 0.53 l 25.86,45.461 c 7.84,13.738 15.85,27.468 22.62,41.191 h 44.77 l -1.78,-6.769 -7.85,-0.723 c -5.18,-0.363 -6.41,-3.574 -7.84,-9.961 l -19.62,-88.465 c -1.43,-6.406 -1.6,-9.426 3.39,-9.961 l 8.93,-0.726 -1.62,-6.786 h -53.85 l 1.62,6.786 7.84,0.726 c 5.16,0.332 6.39,3.555 7.85,9.961 l 19.43,86.844 h -0.54 l -58.48,-102.156 h -11.61 l -16.77,102.156 h -0.5 l -12.85,-61.692 c -2.85,-13.199 -4.11,-20.144 -4.64,-26.394 -0.54,-5.867 1.07,-8.566 6.26,-8.926 l 9.43,-0.519 -1.43,-6.786 h -43.32 l 1.24,6.786"
         style="fill:#706d6e;fill-opacity:1;fill-rule:nonzero;stroke:none"
         id="path38" /><path
         d="m 4021.48,831.848 c -7.46,-14.993 -18.35,-28.711 -35.66,-28.711 -11.93,0 -16.2,7.488 -12.47,21.218 l 13.74,50.821 c 1.23,4.804 0.54,7.148 -3.04,7.48 l -10.34,1.086 1.42,5.887 41,5.144 1.08,-1.05 -18.35,-67.942 c -1.27,-4.617 -1.43,-8.39 1.95,-8.39 4.09,0 10.89,9.464 15.32,17.492 z m -27.28,86.129 c 0,7.648 5.01,15.695 15.53,15.695 7.83,0 14.25,-4.317 14.25,-13.035 0,-9.805 -6.23,-15.696 -15.32,-15.696 -8.56,0 -14.46,4.993 -14.46,13.036"
         style="fill:#706d6e;fill-opacity:1;fill-rule:nonzero;stroke:none"
         id="path40" /><path
         d="m 4115.83,833.625 c -12.85,-25.5 -30.15,-30.488 -43.51,-30.488 -15.69,0 -28.71,8.218 -28.71,29.793 0,27.629 18.9,61.843 55.44,61.843 16.4,0 26.58,-7.097 26.58,-17.281 0,-6.437 -9.26,-11.242 -15.53,-11.242 -4.81,0 -6.23,3.934 -7.32,8.379 -2.3,9.473 -4.26,11.965 -7.84,11.965 -11.23,0 -24.07,-28.196 -24.07,-52.434 0,-10.879 3.23,-19.269 12.68,-19.269 11.77,0 20.12,11.625 26.93,22.461 l 5.35,-3.727"
         style="fill:#706d6e;fill-opacity:1;fill-rule:nonzero;stroke:none"
         id="path42" /><path
         d="m 4143.26,803.137 16.6,71.836 c 1.05,4.851 0.7,7.351 -2.68,7.683 l -10.51,1.086 1.24,5.887 37.97,5.144 0.89,-0.878 -6.59,-25.848 h 0.88 c 8.93,16.23 19.81,26.726 30.66,26.726 6.8,0 11.07,-3.367 11.07,-10.496 0,-6.953 -4.99,-15.332 -12.11,-15.332 -3.23,0 -6.08,1.594 -8.57,3.368 -2.31,1.621 -4.63,2.863 -6.78,2.863 -5.69,0 -11.78,-12.481 -17.3,-31.934 -3.38,-11.914 -6.58,-26.387 -9.82,-37.969 l -24.95,-2.136"
         style="fill:#706d6e;fill-opacity:1;fill-rule:nonzero;stroke:none"
         id="path44" /><path
         d="m 4260.95,824.355 c 0,11.961 3.57,28.36 9.28,41.36 5.53,12.312 12.11,20.879 20.49,20.879 8.39,0 10.16,-7.153 10.16,-14.614 0,-13.203 -10.5,-60.625 -29.23,-60.625 -6.61,0 -10.7,4.083 -10.7,13 z M 4272,803.137 c 22.46,0 35.3,9.265 43.68,22.644 8.2,13.02 11.06,26.387 11.06,34.414 0,27.481 -19.08,34.578 -37.44,34.578 -23,0 -35.66,-10.878 -43.69,-23.339 -8.19,-12.657 -10.51,-27.106 -10.51,-35.118 0,-19.265 11.04,-33.179 36.9,-33.179"
         style="fill:#706d6e;fill-opacity:1;fill-rule:nonzero;stroke:none"
         id="path46" /><path
         d="m 4351.89,803.137 18.34,71.836 c 1.43,4.851 0.73,7.351 -2.65,7.683 l -10.69,1.086 1.41,5.887 41.54,5.144 0.89,-0.878 -12.12,-38.688 h 1.08 c 11.04,20.684 27.27,39.566 45.63,39.566 14.99,0 17.49,-11.757 13.37,-25.828 l -13.37,-43.164 c -1.43,-4.617 -1.24,-8.39 1.95,-8.39 4.3,0 11.08,9.464 15.35,17.492 l 5.16,-3.211 c -7.31,-14.984 -18.01,-28.535 -35.82,-28.535 -10.89,0 -16.07,7.488 -12.15,21.218 l 13.58,45.665 c 1.57,5.332 1.95,10.507 -3.58,10.507 -8.54,0 -24.61,-23.906 -29.97,-37.285 -4.08,-10.312 -7.65,-19.765 -12.83,-37.969 l -25.12,-2.136"
         style="fill:#706d6e;fill-opacity:1;fill-rule:nonzero;stroke:none"
         id="path48" /><g
         id="g50"><g
           id="g52"
           clip-path="url(#clipPath56)"><path
             d="m 3475.33,2085.39 c -10.32,0 -20.25,-1.66 -29.56,-4.77 L 1083.64,1896.23 h 2382.72 v 0.48 c 2.91,-0.32 5.96,-0.48 8.97,-0.48 52.18,0 94.59,42.34 94.59,94.59 0,52.23 -42.41,94.57 -94.59,94.57"
             style="fill:url(#linearGradient62);fill-opacity:1;fill-rule:nonzero;stroke:none"
             id="path64" /></g></g><path
         d="m 3046.13,1321.25 c -178.63,0 -338.92,101.47 -338.92,243.29 0,141.92 160.29,243.5 340.19,243.5 78.24,0 151.33,-19.78 230.71,-64.06 l -56,-71.96 c -50.9,24.64 -110.87,39.4 -174.71,39.4 -75.62,0 -162.93,-42.35 -162.93,-146.88 0,-104.43 86.05,-146.77 162.93,-146.77 63.84,0 125.1,12.79 177.23,35.47 l 56.11,-75.83 c -66.48,-35.52 -147.31,-56.16 -234.61,-56.16"
         style="fill:#231f20;fill-opacity:1;fill-rule:nonzero;stroke:none"
         id="path66" /><path
         d="m 1344.84,1321.25 c -178.65,0 -338.92,101.47 -338.92,243.29 0,141.92 160.27,243.5 340.2,243.5 78.22,0 151.3,-19.78 230.7,-64.06 l -56,-71.96 c -50.89,24.64 -110.86,39.4 -174.7,39.4 -75.63,0 -162.94,-42.35 -162.94,-146.88 0,-104.43 86.06,-146.77 162.94,-146.77 63.84,0 125.09,12.79 177.21,35.47 l 56.1,-75.83 c -66.46,-35.52 -147.31,-56.16 -234.59,-56.16"
         style="fill:#231f20;fill-opacity:1;fill-rule:nonzero;stroke:none"
         id="path68" /><path
         d="m 2330.57,1313.56 c 1.07,0 2.14,0.12 3.23,0.16 1.04,-0.04 2.09,-0.16 3.13,-0.16 45.25,0 88.16,13.22 123.25,35.32 0.3,-1.3 9.7,-32.33 164.56,-32.33 v 463.14 15.77 h -168.06 v -289.77 c 0,-39.1 -30.39,-85.13 -84.78,-85.44 -37.95,0.31 -74.36,26.33 -74.36,59.27 l 0.28,315.94 h -168.45 v -324.91 c 0,-85.57 91.75,-156.99 201.2,-156.99"
         style="fill:#231f20;fill-opacity:1;fill-rule:nonzero;stroke:none"
         id="path70" /><path
         d="m 3537.46,1322.38 h -164.61 v 463.14 h 164.61 v -463.14"
         style="fill:#231f20;fill-opacity:1;fill-rule:nonzero;stroke:none"
         id="path72" /><path
         d="m 4471.96,1317.05 h -164.6 v 816.5 h 164.6 v -816.5"
         style="fill:#231f20;fill-opacity:1;fill-rule:nonzero;stroke:none"
         id="path74" /><path
         d="m 1972.78,1681.16 c 27.38,0 53.18,-5.48 74.84,-15.05 h 0.04 v 121.78 c -19.43,2.95 -40.43,4.57 -58.95,4.57 -44.08,0 -88.39,-12.8 -124.59,-34.29 -2.7,5.48 -22.85,31.36 -164.21,31.36 v -463.17 -5.91 h 164.66 v 280.84 c 0,44.37 52.11,79.87 108.21,79.87"
         style="fill:#231f20;fill-opacity:1;fill-rule:nonzero;stroke:none"
         id="path76" /><path
         d="m 3936.65,1802.34 c -104.69,0 -152.78,-8.06 -232.86,-26.97 V 1644.1 c 53.36,22.49 121.73,39.58 185.83,39.58 67.28,0 140.98,-7.2 142.04,-67.45 -24.56,1.8 -67.27,6.29 -104.63,6.29 -133.55,0 -287.3,-28.75 -287.3,-172.62 0,-97.97 100.39,-137.54 203.94,-137.54 75.89,0 152.69,-6.68 198.36,39.36 0,0 -23.21,-40.87 157.57,-32.11 v 288.54 c 0,170.81 -109.14,194.19 -262.95,194.19 z m 90.83,-287.7 c 0,-76.05 -76,-117.62 -131.02,-123.79 -108.4,-12.14 -117.71,53.3 -110.77,85.12 10.58,48.58 87.71,65.3 148.27,61.1 h 93.52 v -22.43"
         style="fill:#231f20;fill-opacity:1;fill-rule:nonzero;stroke:none"
         id="path78" /><path
         d="m 1126.68,1173.82 h -37.86 v 30.39 h 116.65 v -30.39 h -37.85 v -123.27 h -40.94 v 123.27"
         style="fill:#231f20;fill-opacity:1;fill-rule:nonzero;stroke:none"
         id="path80" /><path
         d="m 1430.67,1204.21 h 108.3 v -29.05 h -67.35 v -31.7 h 63.61 v -29.06 h -63.61 v -34.8 h 69.77 v -29.05 h -110.72 v 153.66"
         style="fill:#231f20;fill-opacity:1;fill-rule:nonzero;stroke:none"
         id="path82" /><path
         d="m 1903.5,1054.06 c -11.66,-2.83 -24.66,-6.14 -45.58,-6.14 -40.93,0 -88.25,20.71 -88.25,78.78 0,53.51 37.42,80.15 88.03,80.15 15.64,0 30.83,-3.54 45.57,-7.93 l -3.29,-33.24 c -13.21,7.26 -25.99,10.79 -40.07,10.79 -29.05,0 -47.99,-21.14 -47.99,-49.77 0,-30.15 21.35,-48.42 51.3,-48.42 13.42,0 27.07,3.52 38.29,7.93 l 1.99,-32.15"
         style="fill:#231f20;fill-opacity:1;fill-rule:nonzero;stroke:none"
         id="path84" /><path
         d="m 2131.32,1204.21 h 40.95 v -58.78 h 48.42 v 58.78 h 40.95 v -153.66 h -40.95 v 65.81 h -48.42 v -65.81 h -40.95 v 153.66"
         style="fill:#231f20;fill-opacity:1;fill-rule:nonzero;stroke:none"
         id="path86" /><path
         d="m 2500.02,1204.21 h 52.17 l 51.95,-104.35 h 0.45 l -0.67,104.35 h 37.43 v -153.66 h -50.85 l -53.72,105.03 h -0.43 l 1.32,-105.03 h -37.65 v 153.66"
         style="fill:#231f20;fill-opacity:1;fill-rule:nonzero;stroke:none"
         id="path88" /><path
         d="m 2916.29,1127.38 c 0,26.64 9.88,49.09 34.77,49.09 24.88,0 34.77,-22.45 34.77,-49.09 0,-25.32 -9.89,-49.1 -34.77,-49.1 -24.89,0 -34.77,23.78 -34.77,49.1 z m -42.27,0 c 0,-48.87 26.85,-79.46 77.04,-79.46 50.2,0 77.05,30.59 77.05,79.46 0,49.32 -26.42,79.47 -77.05,79.47 -50.62,0 -77.04,-30.15 -77.04,-79.47"
         style="fill:#231f20;fill-opacity:1;fill-rule:nonzero;stroke:none"
         id="path90" /><path
         d="m 3260.13,1204.21 h 40.92 v -123.29 h 63.41 v -30.37 h -104.33 v 153.66"
         style="fill:#231f20;fill-opacity:1;fill-rule:nonzero;stroke:none"
         id="path92" /><path
         d="m 3628.18,1127.38 c 0,26.64 9.89,49.09 34.76,49.09 24.89,0 34.77,-22.45 34.77,-49.09 0,-25.32 -9.88,-49.1 -34.77,-49.1 -24.87,0 -34.76,23.78 -34.76,49.1 z m -42.27,0 c 0,-48.87 26.84,-79.46 77.03,-79.46 50.2,0 77.04,30.59 77.04,79.46 0,49.32 -26.42,79.47 -77.04,79.47 -50.63,0 -77.03,-30.15 -77.03,-79.47"
         style="fill:#231f20;fill-opacity:1;fill-rule:nonzero;stroke:none"
         id="path94" /><path
         d="m 4113.96,1054.96 c -25.94,-6.6 -45.33,-7.04 -59.43,-7.04 -40.92,0 -88.24,20.71 -88.24,78.78 0,57.92 40.7,80.15 97.06,80.15 10.13,0 31.49,-1.13 46.45,-6.83 l -3.3,-33.47 c -12.77,7.51 -27.73,9.92 -37.44,9.92 -33.23,0 -60.54,-13.87 -60.54,-49.77 0,-30.15 21.37,-48.42 51.3,-48.42 5.51,0 10.81,0.88 14.54,2.64 v 30.39 h -23.99 v 29.05 h 63.59 v -85.4"
         style="fill:#231f20;fill-opacity:1;fill-rule:nonzero;stroke:none"
         id="path96" /><path
         d="m 4397.27,1108.44 -56.78,95.77 h 47.1 l 30.14,-61.65 29.73,61.65 h 47.11 l -56.36,-95.77 v -57.89 h -40.94 v 57.89"
         style="fill:#231f20;fill-opacity:1;fill-rule:nonzero;stroke:none"
         id="path98" /><path
         d="m 4621.07,2130.81 c 33.83,0 60.81,-27.52 60.81,-61.91 0,-34.99 -26.98,-62.18 -61.1,-62.18 -33.84,0 -61.35,27.19 -61.35,62.18 0,34.39 27.51,61.91 61.35,61.91 z m -0.29,-9.65 c -27.23,0 -49.53,-23.41 -49.53,-52.26 0,-29.45 22.3,-52.56 49.82,-52.56 27.52,-0.27 49.53,23.11 49.53,52.29 0,29.12 -22.01,52.53 -49.53,52.53 z m -11.56,-88.32 h -10.99 v 69.05 c 5.77,0.84 11.29,1.67 19.54,1.67 10.44,0 17.33,-2.2 21.47,-5.24 4.11,-3.03 6.31,-7.71 6.31,-14.32 0,-9.08 -6.04,-14.57 -13.49,-16.77 v -0.53 c 6.07,-1.13 10.19,-6.61 11.57,-16.82 1.64,-10.7 3.3,-14.84 4.4,-17.04 h -11.55 c -1.66,2.2 -3.33,8.54 -4.69,17.63 -1.63,8.81 -6.04,12.09 -14.86,12.09 h -7.71 z m 0,38.26 h 7.99 c 9.07,0 16.79,3.28 16.79,11.83 0,6.04 -4.42,12.09 -16.79,12.09 -3.58,0 -6.06,-0.27 -7.99,-0.54 v -23.38"
         style="fill:#231f20;fill-opacity:1;fill-rule:nonzero;stroke:none"
         id="path100" /></g></g></svg>
