<?xml version="1.0" encoding="UTF-8" standalone="no"?>
<!-- Created with sK1/UniConvertor (http://sk1project.org/) -->

<svg
   width="595.276pt"
   height="841.89pt"
   viewBox="0 0 595.276 841.89"
   fill-rule="evenodd"
   version="1.1"
   id="svg16"
   sodipodi:docname="Geil.svg"
   inkscape:version="1.1.1 (3bf5ae0d25, 2021-09-20, custom)"
   xmlns:inkscape="http://www.inkscape.org/namespaces/inkscape"
   xmlns:sodipodi="http://sodipodi.sourceforge.net/DTD/sodipodi-0.dtd"
   xmlns="http://www.w3.org/2000/svg"
   xmlns:svg="http://www.w3.org/2000/svg">
  <defs
     id="defs20" />
  <sodipodi:namedview
     id="namedview18"
     pagecolor="#ffffff"
     bordercolor="#666666"
     borderopacity="1.0"
     inkscape:pageshadow="2"
     inkscape:pageopacity="0.0"
     inkscape:pagecheckerboard="0"
     inkscape:document-units="pt"
     showgrid="false"
     inkscape:zoom="0.60756155"
     inkscape:cx="396.66763"
     inkscape:cy="560.43705"
     inkscape:window-width="1920"
     inkscape:window-height="1023"
     inkscape:window-x="0"
     inkscape:window-y="0"
     inkscape:window-maximized="1"
     inkscape:current-layer="svg16" />
  <g
     id="g14"
     transform="translate(-96.16599,-128.43992)">
    <g
       id="g12">
      <path
         style="fill:#ff0000;stroke:none"
         d="m 358.776,564.114 h 44.28 c -3.24,19.8 -14.544,33.984 -38.232,40.248 H 304.92 c -28.296,-7.92 -42.48,-29.232 -42.48,-64.008 0,-21.384 6.768,-38.16 20.304,-50.328 13.176,-11.736 31.032,-17.568 53.496,-17.568 24.264,0 42.048,6.12 53.208,18.36 10.512,11.448 15.84,28.872 15.84,52.128 0,3.096 -0.144,7.56 -0.288,9.072 h -96.696 c 1.728,37.224 47.16,37.872 50.472,12.096 z m -50.472,-40.32 h 52.992 c -4.896,-32.616 -48.096,-32.256 -52.992,0 z"
         id="path2" />
      <path
         style="fill:#ff0000;stroke:none"
         d="m 440.352,571.242 h 13.896 v -65.808 h -13.896 v -32.976 h 61.2 v 32.976 h -14.616 v 65.808 h 14.616 v 32.544 h -61.2 z"
         id="path4" />
      <path
         style="fill:#ff0000;stroke:none"
         d="m 539.136,472.458 h 32.688 v 98.496 h 70.272 v 32.328 h -70.272 -17.28 -15.408 z"
         id="path6" />
      <path
         style="fill:#ff0000;stroke:none"
         d="m 241.56,523.866 h -36.72 c 1.008,-12.096 -11.088,-24.624 -29.88,-24.696 -54.864,-0.144 -50.112,89.208 2.088,86.688 12.528,-0.648 25.848,-7.272 28.728,-19.8 H 176.688 V 538.05 h 64.872 v 66.312 h -28.872 l 0.144,-5.976 c -2.592,3.456 -4.608,4.68 -7.992,5.976 H 138.888 C 115.92,592.986 101.88,569.298 101.88,541.218 c 0,-41.976 34.056,-68.76 75.528,-68.76 17.712,0 32.4,4.104 43.992,12.384 11.52,8.352 18.216,24.84 20.16,39.024 z"
         id="path8" />
      <path
         style="fill:#ff0000;stroke:none"
         d="m 670.104,467.418 c 11.088,0 20.016,9 20.016,20.016 0,11.088 -8.928,20.016 -20.016,20.016 -11.016,0 -20.016,-8.928 -20.016,-20.016 0,-11.016 9,-20.016 20.016,-20.016 z m -8.208,31.176 v -22.32 h 9.432 c 2.448,0 4.176,0.216 5.256,0.648 1.08,0.36 1.944,1.08 2.592,2.088 0.648,1.008 0.936,2.232 0.936,3.528 0,1.656 -0.504,3.096 -1.44,4.176 -1.008,1.08 -2.448,1.728 -4.464,2.016 1.008,0.576 1.8,1.224 2.448,1.872 0.648,0.72 1.512,1.944 2.52,3.672 l 2.736,4.248 c 2.664,-2.88 4.392,-6.768 4.392,-11.088 0,-8.928 -7.272,-16.128 -16.2,-16.128 -8.928,0 -16.128,7.2 -16.128,16.128 0,8.928 7.2,16.2 16.128,16.2 4.608,0 8.784,-1.944 11.664,-5.04 h -5.184 l -3.312,-4.824 c -1.152,-1.728 -1.944,-2.88 -2.376,-3.312 -0.432,-0.432 -0.864,-0.72 -1.368,-0.936 -0.432,-0.144 -1.224,-0.216 -2.232,-0.216 h -0.936 v 9.288 z m 4.464,-12.888 h 3.384 c 2.16,0 3.456,-0.072 4.032,-0.288 0.504,-0.144 0.936,-0.432 1.224,-0.936 0.36,-0.432 0.504,-1.008 0.504,-1.656 0,-0.72 -0.216,-1.368 -0.648,-1.8 -0.36,-0.504 -0.936,-0.792 -1.656,-0.864 -0.36,-0.072 -1.512,-0.072 -3.312,-0.072 h -3.528 z"
         id="path10" />
    </g>
  </g>
</svg>
