<?xml version="1.0" encoding="UTF-8" standalone="no"?>
<svg
   xmlns:dc="http://purl.org/dc/elements/1.1/"
   xmlns:cc="http://creativecommons.org/ns#"
   xmlns:rdf="http://www.w3.org/1999/02/22-rdf-syntax-ns#"
   xmlns:svg="http://www.w3.org/2000/svg"
   xmlns="http://www.w3.org/2000/svg"
   xmlns:sodipodi="http://sodipodi.sourceforge.net/DTD/sodipodi-0.dtd"
   xmlns:inkscape="http://www.inkscape.org/namespaces/inkscape"
   version="1.1"
   id="svg2"
   xml:space="preserve"
   width="258.66666"
   height="258.66666"
   viewBox="0 0 258.66666 258.66666"
   sodipodi:docname="Kingston_Technology.eps"><metadata
     id="metadata8"><rdf:RDF><cc:Work
         rdf:about=""><dc:format>image/svg+xml</dc:format><dc:type
           rdf:resource="http://purl.org/dc/dcmitype/StillImage" /></cc:Work></rdf:RDF></metadata><defs
     id="defs6" /><sodipodi:namedview
     pagecolor="#ffffff"
     bordercolor="#666666"
     borderopacity="1"
     objecttolerance="10"
     gridtolerance="10"
     guidetolerance="10"
     inkscape:pageopacity="0"
     inkscape:pageshadow="2"
     inkscape:window-width="640"
     inkscape:window-height="480"
     id="namedview4" /><g
     id="g10"
     inkscape:groupmode="layer"
     inkscape:label="ink_ext_XXXXXX"
     transform="matrix(1.3333333,0,0,-1.3333333,0,258.66667)"><g
       id="g12"
       transform="scale(0.1)"><path
         d="M 2.59766,1933.23 H 1930.16 V 5.66797 H 2.59766 V 1933.23"
         style="fill:#ffffff;fill-opacity:1;fill-rule:evenodd;stroke:none"
         id="path14" /><path
         d="M 200.945,932.969 V 823.945 c 0,-40.785 4.692,-59.527 45.969,-59.527 v -3.852 H 87.6367 v 3.852 c 47.3283,0 41.7033,50.703 41.7033,91.445 v 116.348 c 0,40.789 8.437,121.499 -38.8908,121.499 v 3.92 H 243.023 v -3.92 c -39.265,0 -42.078,-23.87 -42.078,-64.66 v -85.48 l 6.821,-0.355 c 63.785,63.555 70.925,74.795 75.265,81.855 31.926,51.86 1.77,67.24 -15.84,67.24 v 5.78 h 129.914 v -5.78 c -22.152,0 -63.933,-34.47 -88.613,-54.61 l -95.734,-96.161 c 130.656,-6.152 127.847,-74.297 142.453,-125.086 8.184,-28.59 13.574,-46.453 44.875,-52.433 v -3.454 c 0,0 -116.352,-0.121 -116.387,0 -17.781,98.711 -26.234,180.914 -82.754,172.403"
         style="fill:#231f20;fill-opacity:1;fill-rule:evenodd;stroke:none"
         id="path16" /><path
         d="m 509.168,919.117 c 0,-46.707 7.523,-59.804 34.734,-59.804 v -3.45 H 408.281 v 3.45 c 27.676,0 29.844,32.07 29.844,59.804 v 122.833 c 0,32.43 -6.836,50.19 -34.555,50.19 v 5.79 H 509.168 V 919.117"
         style="fill:#231f20;fill-opacity:1;fill-rule:evenodd;stroke:none"
         id="path18" /><path
         d="m 472.531,1188.32 c 20.637,0 37.746,-17.12 37.746,-37.77 0,-20.64 -17.109,-37.74 -37.746,-37.74 -20.656,0 -37.765,17.1 -37.765,37.74 0,20.65 17.109,37.77 37.765,37.77"
         style="fill:#231f20;fill-opacity:1;fill-rule:evenodd;stroke:none"
         id="path20" /><path
         d="m 650.738,1068.03 c 23.653,34.09 39.719,34.85 66.914,34.85 64.793,0 70.258,-49.61 70.258,-91.65 l 0.164,-92.113 c 0,-45.304 4.707,-59.804 29.914,-59.804 v -3.45 H 688.953 v 3.45 c 22.629,0 22.629,19.691 22.629,59.804 v 93.623 c 0,33.74 3.699,76.16 -22.168,76.16 -29.559,0 -30.668,-23.65 -38.676,-37.27 V 919.117 c 0,-39.66 2.328,-59.804 24.969,-59.804 v -3.45 h -126.68 v 3.45 c 25.161,0 29.399,21.113 29.399,59.804 v 122.833 c 0,33.88 -6.09,50.21 -33.789,50.21 v 5.77 h 106.101 v -29.9"
         style="fill:#231f20;fill-opacity:1;fill-rule:evenodd;stroke:none"
         id="path22" /><path
         d="m 1321.32,1097.93 h 49.74 l -8.49,-16.87 h -41.25 V 935.723 c 0,-73.164 42.35,-67.059 60.02,-51.141 l 1.01,-4.578 c -37.98,-30.625 -63.8,-24.078 -73.44,-24.078 -36.84,0 -59.82,25.918 -59.82,60.644 v 164.49 h -41.08 v 1.99 c 32.08,11.08 84.69,53.81 109.04,89.36 h 4.27 v -74.48"
         style="fill:#231f20;fill-opacity:1;fill-rule:evenodd;stroke:none"
         id="path24" /><path
         d="m 1356.12,974.441 c 0,58.169 52.08,128.439 116.24,128.439 58.46,0 114.29,-62.32 114.29,-124.2 0,-72.91 -62.86,-127 -114.29,-127 -62.73,0 -116.24,55.972 -116.24,122.761 z m 157.08,6.582 c 0,73.517 -2.59,116.937 -40.84,116.937 -42.09,0 -39.03,-55.96 -39.03,-116.937 0,-73.492 -0.19,-124.929 39.03,-124.929 43.88,0 40.84,51.437 40.84,124.929"
         style="fill:#231f20;fill-opacity:1;fill-rule:evenodd;stroke:none"
         id="path26" /><path
         d="m 1676.7,1068.03 c 23.76,34.09 39.74,34.85 66.95,34.85 64.85,0 70.22,-49.61 70.22,-91.65 l 0.23,-92.113 c 0,-45.304 4.69,-59.804 29.91,-59.804 v -3.45 h -129.04 v 3.45 c 22.66,0 22.66,19.691 22.66,59.804 v 93.623 c 0,33.74 3.62,76.16 -22.19,76.16 -29.54,0 -30.67,-23.65 -38.74,-37.27 V 919.117 c 0,-39.66 2.4,-59.804 25.05,-59.804 v -3.45 h -126.69 v 3.45 c 25.16,0 29.36,21.113 29.36,59.804 v 122.833 c 0,33.88 -6.08,50.21 -33.76,50.21 v 5.77 h 106.04 v -29.9"
         style="fill:#231f20;fill-opacity:1;fill-rule:evenodd;stroke:none"
         id="path28" /><path
         d="m 942.047,892.906 c -7.387,-9.683 -17.859,-41.054 -56.934,-41.054 -45.25,0 -79.425,41.242 -79.425,123.543 0,66.915 43.003,126.365 92.476,126.365 35.102,0 48.59,-31.33 48.59,-31.33 v 25.54 h 108.186 v -5.24 c 0,0 -35.54,7.16 -35.54,-43.69 V 860.594 c -3.45,-50.621 -25.564,-85.34 -113.142,-110.024 l 0.605,5.813 c 50.371,36.687 39.516,89.758 35.184,136.523 z m 6.258,93.903 c 0,54.691 -4.168,108.071 -39.328,108.071 -24.579,0 -30.899,-43.03 -30.899,-120.974 0,-65.437 5.508,-109.215 30.375,-109.215 21.945,0 39.852,49.657 39.852,102.399 v 19.719"
         style="fill:#231f20;fill-opacity:1;fill-rule:evenodd;stroke:none"
         id="path30" /><path
         d="m 1031.82,933.152 h 34.64 c -4.66,-75.738 48.04,-75.824 60.81,-75.824 22.93,0 43.69,17.992 43.69,38.027 0,61.614 -128.39,35.329 -128.39,128.875 0,42.51 32.36,77.99 80.76,77.99 78.42,0 87.6,-47.11 87.6,-63.53 h -29.3 c 2.74,11.76 -1.99,60.04 -51.92,60.04 -40.78,0 -39.15,-33.25 -39.15,-35.53 0,-59.74 138.78,-38.13 138.78,-126.161 0,-44.441 -37.4,-81.492 -87.62,-84.273 -86.97,-4.766 -109.9,58.191 -109.9,80.386"
         style="fill:#231f20;fill-opacity:1;fill-rule:evenodd;stroke:none"
         id="path32" /><path
         d="m 416.504,836.703 h 61.238 v -8.992 h -25.426 v -66.516 h -10.382 v 66.516 h -25.43 v 8.992"
         style="fill:#231f20;fill-opacity:1;fill-rule:evenodd;stroke:none"
         id="path34" /><path
         d="m 555.41,761.195 v 75.508 h 55.031 v -9.285 h -45.058 v -22.883 h 41.64 v -8.742 h -41.64 V 770.25 h 45.824 v -9.055 H 555.41"
         style="fill:#231f20;fill-opacity:1;fill-rule:evenodd;stroke:none"
         id="path36" /><path
         d="m 723.758,838.754 c 9.539,0 16.98,-2.551 22.234,-7.57 5.27,-5.02 8.199,-10.75 8.785,-17.153 h -9.937 c -1.149,4.852 -3.414,8.703 -6.801,11.567 -3.363,2.863 -8.066,4.269 -14.203,4.269 -7.379,0 -13.422,-2.617 -17.988,-7.828 -4.578,-5.246 -6.836,-13.262 -6.836,-24.031 0,-8.828 2.051,-16.024 6.152,-21.481 4.141,-5.543 10.289,-8.265 18.484,-8.265 7.512,0 13.286,2.886 17.196,8.703 2.113,3.012 3.644,7.051 4.687,12.055 h 9.957 c -0.879,-7.997 -3.804,-14.622 -8.851,-20.004 -5.957,-6.465 -14.032,-9.746 -24.219,-9.746 -8.785,0 -16.148,2.699 -22.133,7.949 -7.82,7.051 -11.754,17.883 -11.754,32.527 0,11.149 2.992,20.266 8.871,27.379 6.356,7.762 15.161,11.629 26.356,11.629"
         style="fill:#231f20;fill-opacity:1;fill-rule:evenodd;stroke:none"
         id="path38" /><path
         d="m 835.477,761.195 v 75.508 h 10.351 v -31.207 h 39.285 v 31.207 h 10.289 v -75.508 h -10.289 v 35.348 h -39.285 v -35.348 h -10.351"
         style="fill:#231f20;fill-opacity:1;fill-rule:evenodd;stroke:none"
         id="path40" /><path
         d="m 1022.7,761.195 v 75.508 h 12.09 l 38.09,-61.117 v 61.117 h 9.75 v -75.508 h -11.44 l -38.67,61.098 v -61.098 h -9.82"
         style="fill:#231f20;fill-opacity:1;fill-rule:evenodd;stroke:none"
         id="path42" /><path
         d="m 1187.45,776.801 c -4.19,5.707 -6.3,12.758 -6.3,21.039 0,10.523 2.41,18.449 7.39,23.762 4.91,5.375 11.31,8.035 19.09,8.035 8.05,0 14.43,-2.696 19.02,-8.078 4.68,-5.438 6.96,-12.547 6.96,-21.454 0,-8.375 -2.01,-15.792 -5.98,-22.261 -4.04,-6.442 -10.54,-9.684 -19.58,-9.684 -9.48,0 -16.36,2.867 -20.6,8.641 z m -9.27,48 c -5.1,-7.254 -7.62,-16.024 -7.62,-26.211 0,-11.336 2.93,-20.66 8.89,-28.027 6.62,-7.696 15.76,-11.52 27.34,-11.52 12.43,0 22.03,4.391 28.72,13.113 5.73,7.528 8.6,16.879 8.6,28.11 0,10.422 -2.51,18.949 -7.53,25.621 -6.38,8.554 -16.26,12.867 -29.54,12.867 -12.8,0 -22.4,-4.645 -28.86,-13.953"
         style="fill:#231f20;fill-opacity:1;fill-rule:evenodd;stroke:none"
         id="path44" /><path
         d="m 1332.09,761.195 v 75.508 h 10.16 V 770.25 h 38.28 v -9.055 h -48.44"
         style="fill:#231f20;fill-opacity:1;fill-rule:evenodd;stroke:none"
         id="path46" /><path
         d="m 1477.21,776.801 c -4.23,5.707 -6.32,12.758 -6.32,21.039 0,10.523 2.45,18.449 7.36,23.762 4.92,5.375 11.3,8.035 19.14,8.035 8.01,0 14.4,-2.696 19.01,-8.078 4.63,-5.438 6.98,-12.547 6.98,-21.454 0,-8.375 -2,-15.792 -6.04,-22.261 -3.96,-6.442 -10.52,-9.684 -19.52,-9.684 -9.5,0 -16.34,2.867 -20.61,8.641 z m -9.31,48 c -5.08,-7.254 -7.61,-16.024 -7.61,-26.211 0,-11.336 2.99,-20.66 8.91,-28.027 6.67,-7.696 15.79,-11.52 27.37,-11.52 12.41,0 22.02,4.391 28.69,13.113 5.79,7.528 8.59,16.879 8.59,28.11 0,10.422 -2.51,18.949 -7.49,25.621 -6.37,8.554 -16.27,12.867 -29.61,12.867 -12.77,0 -22.34,-4.645 -28.85,-13.953"
         style="fill:#231f20;fill-opacity:1;fill-rule:evenodd;stroke:none"
         id="path48" /><path
         d="m 1654.4,838.652 c 7.15,0 13.28,-1.359 18.44,-4.097 7.43,-3.961 12.05,-10.883 13.75,-20.711 h -10.13 c -1.23,5.5 -3.8,9.496 -7.61,12.027 -3.97,2.508 -8.76,3.766 -14.68,3.766 -6.97,0 -12.87,-2.594 -17.68,-7.864 -4.73,-5.191 -7.13,-13.011 -7.13,-23.39 0,-8.973 1.93,-16.27 5.92,-21.879 3.91,-5.691 10.35,-8.512 19.18,-8.512 6.9,0 12.53,1.965 16.99,5.981 4.43,3.957 6.77,10.34 6.84,19.183 h -23.6 v 8.469 h 33.13 v -40.43 h -6.61 l -2.41,9.746 c -3.5,-3.828 -6.54,-6.441 -9.24,-7.906 -4.45,-2.531 -10.18,-3.765 -17.09,-3.765 -8.95,0 -16.67,2.886 -23.05,8.66 -7.02,7.281 -10.54,17.195 -10.54,29.847 0,12.68 3.39,22.715 10.25,30.207 6.48,7.129 14.98,10.668 25.27,10.668"
         style="fill:#231f20;fill-opacity:1;fill-rule:evenodd;stroke:none"
         id="path50" /><path
         d="m 1799.94,791.672 -28.49,45.031 h 11.88 l 21.65,-36.308 21.77,36.308 h 11.93 l -28.49,-45.031 v -30.477 h -10.25 v 30.477"
         style="fill:#231f20;fill-opacity:1;fill-rule:evenodd;stroke:none"
         id="path52" /><path
         d="m 1809.08,1116.3 c 0,9.9 8.13,17.99 18.13,17.99 9.96,0 17.91,-8.09 17.91,-17.99 0,-9.99 -7.95,-18.08 -17.91,-18.08 -10,0 -18.13,8.09 -18.13,18.08 z m 33.23,0 c 0,8.76 -6.37,15.62 -15.1,15.62 -8.82,0 -15.26,-6.86 -15.26,-15.62 0,-8.84 6.44,-15.67 15.26,-15.67 8.73,0 15.1,6.83 15.1,15.67 z m -6.14,-10.06 h -2.94 l -5.78,9.26 h -4.5 v -9.26 h -2.47 v 20.11 h 8.79 c 5.33,0 7.12,-1.99 7.12,-5.33 0,-3.95 -2.73,-5.42 -6.31,-5.52 l 6.09,-9.26 z m -9.48,11.22 c 2.93,0 7.02,-0.48 7.02,3.61 0,3.14 -2.52,3.54 -5.03,3.54 h -5.73 v -7.15 h 3.74"
         style="fill:#231f20;fill-opacity:1;fill-rule:evenodd;stroke:none"
         id="path54" /></g></g></svg>
