<?xml version="1.0" encoding="UTF-8" standalone="no"?>
<svg
   xmlns:dc="http://purl.org/dc/elements/1.1/"
   xmlns:cc="http://creativecommons.org/ns#"
   xmlns:rdf="http://www.w3.org/1999/02/22-rdf-syntax-ns#"
   xmlns:svg="http://www.w3.org/2000/svg"
   xmlns="http://www.w3.org/2000/svg"
   xmlns:sodipodi="http://sodipodi.sourceforge.net/DTD/sodipodi-0.dtd"
   xmlns:inkscape="http://www.inkscape.org/namespaces/inkscape"
   version="1.1"
   id="svg2"
   xml:space="preserve"
   width="982.66669"
   height="128"
   viewBox="0 0 982.66669 128"
   sodipodi:docname="teamgroup-seeklogo.com.eps"><metadata
     id="metadata8"><rdf:RDF><cc:Work
         rdf:about=""><dc:format>image/svg+xml</dc:format><dc:type
           rdf:resource="http://purl.org/dc/dcmitype/StillImage" /></cc:Work></rdf:RDF></metadata><defs
     id="defs6" /><sodipodi:namedview
     pagecolor="#ffffff"
     bordercolor="#666666"
     borderopacity="1"
     objecttolerance="10"
     gridtolerance="10"
     guidetolerance="10"
     inkscape:pageopacity="0"
     inkscape:pageshadow="2"
     inkscape:window-width="640"
     inkscape:window-height="480"
     id="namedview4" /><g
     id="g10"
     inkscape:groupmode="layer"
     inkscape:label="ink_ext_XXXXXX"
     transform="matrix(1.3333333,0,0,-1.3333333,0,128)"><g
       id="g12"
       transform="scale(0.1)"><path
         d="m 1249.63,530.645 c 0,-0.809 2.09,-1.348 2.09,-2.961 0,-1.344 0,-2.153 0,-2.692 l 87.6,-208.156 h -179.38 c 20.86,40.609 79.26,169.969 89.69,213.809 z M 928.41,54.0781 h 116.8 l 75.1,169.1639 h 262.82 c 6.26,-29.316 39.63,-92.785 52.14,-125.3279 6.27,-14.5235 12.52,-30.6602 18.78,-43.836 h 214.84 c 4.18,61.8559 79.27,322.7309 79.27,405.2969 L 1929.63,79.3594 c 4.17,-11.0274 8.34,-15.5977 12.51,-27.4336 6.26,-16.9414 2.09,-15.332 14.61,-24.7422 4.17,16.9453 16.68,35.7695 25.02,51.9062 8.35,19.6329 16.69,36.8442 25.04,55.1332 16.68,34.965 33.37,67.773 52.14,103.812 22.95,45.449 91.78,173.465 93.87,216.766 10.43,-15.867 8.34,-39.535 12.51,-59.168 4.17,-22.59 10.44,-43.297 14.6,-62.125 l 52.15,-240.4338 c 12.52,-48.1406 -14.6,-38.9961 112.64,-38.9961 -52.15,227.7929 -106.38,457.4729 -160.61,685.8009 -14.61,-11.027 -45.9,-94.668 -58.41,-118.606 l -112.64,-247.96 c -10.43,-25.016 -54.23,-107.579 -56.31,-127.747 -10.43,8.606 -20.86,44.911 -27.12,60.512 l -146.01,313.047 c -8.35,19.363 -50.07,112.148 -62.58,120.754 L 1570.86,67.2539 c -12.52,8.6055 -16.69,22.5938 -22.95,36.3091 -6.25,16.945 -10.43,26.089 -18.77,42.492 L 1245.46,739.879 928.41,54.0781"
         style="fill:#231715;fill-opacity:1;fill-rule:evenodd;stroke:none"
         id="path14" /><path
         d="m 7357.08,704.379 c -47.97,69.387 -235.7,151.414 -319.13,179.922 -104.3,34.965 -298.29,72.347 -419.27,73.961 h -10.43 -150.18 c -33.37,-0.539 -64.66,-1.883 -93.87,-5.649 -206.5,-26.355 -402.57,-64.816 -573.61,-178.847 -52.15,-34.426 -93.86,-70.461 -131.41,-118.332 -37.55,-48.411 -62.58,-100.317 -62.58,-187.454 2.09,-104.886 93.86,-209.238 173.13,-262.488 14.6,-8.875 27.12,-17.75 41.72,-26.894 116.81,-79.3363 327.48,-135.0082 467.23,-154.9105 58.41,-8.0703 98.04,-12.1016 135.59,-14.25391 h 200.24 29.2 v 4.57421 c -256.56,0 -527.72,67.5039 -682.08,169.1602 -254.48,168.898 -206.5,373.293 2.09,501.578 171.04,104.617 410.91,166.477 684.17,166.477 160.61,0 241.96,-4.844 392.14,-34.965 179.38,-36.039 292.02,-106.5 317.05,-111.879"
         style="fill:#231715;fill-opacity:1;fill-rule:evenodd;stroke:none"
         id="path16" /><path
         d="m 527.918,54.0781 h 369.203 v 97.8949 h -262.82 v 213.808 h 262.82 v 93.594 h -262.82 v 164.859 h 262.82 v 93.59 H 527.918 V 54.0781"
         style="fill:#221715;fill-opacity:1;fill-rule:evenodd;stroke:none"
         id="path18" /><path
         d="m 2403.12,405.852 v -40.071 c 0,-268.1365 269.08,-388.8904 481.84,-303.0974 100.12,40.6094 166.87,142.0004 177.3,250.3864 0,15.864 0,26.086 2.08,42.223 2.09,14.254 6.27,28.238 -10.42,28.238 h -285.77 v -53.25 h 227.36 c 0,-212.195 -225.27,-277.2771 -362.94,-212.465 -39.63,18.559 -52.15,28.778 -81.35,57.555 -25.03,24.473 -41.72,45.988 -56.32,81.488 -64.66,159.481 -4.17,351.239 158.53,405.297 85.52,28.239 204.41,10.489 266.99,-50.023 16.69,-15.063 47.97,-43.57 52.15,-63.738 18.77,12.371 33.37,29.582 50.06,40.07 -12.52,18.019 -27.12,41.148 -41.72,57.015 -45.89,50.024 -137.67,85.524 -212.76,85.524 -131.41,0 -158.52,-7.262 -254.47,-80.145 -8.35,-6.453 -12.52,-9.953 -20.86,-19.093 -52.15,-62.664 -89.7,-137.164 -89.7,-225.914"
         style="fill:#221715;fill-opacity:1;fill-rule:evenodd;stroke:none"
         id="path20" /><path
         d="m 3619.19,379.227 c 0,97.628 31.29,158.41 85.52,212.734 193.99,193.102 488.1,29.852 488.1,-186.109 0,-63.739 2.08,-92.782 -29.2,-153.028 -16.69,-33.617 -31.29,-52.441 -56.32,-77.453 -171.05,-171.58584 -488.1,-58.363 -488.1,203.856 z m -66.74,8.875 c 0,-329.7231 400.48,-454.7778 596.55,-257.375 91.78,92.785 110.55,146.574 110.55,279.699 0,85.793 -47.97,167.281 -102.21,221.605 -208.58,208.973 -604.89,75.844 -604.89,-243.929"
         style="fill:#221715;fill-opacity:1;fill-rule:evenodd;stroke:none"
         id="path22" /><path
         d="m 7004.57,526.07 c 2.09,17.481 4.17,11.836 4.17,31.2 h -102.21 c 0,-15.602 -4.17,-26.09 -6.25,-41.957 l -60.49,-314.391 h 102.2 l 45.89,235.859 c 6.26,31.465 6.26,67.235 35.46,67.235 29.2,0 4.18,-79.067 2.09,-91.707 -6.26,-26.895 -8.34,-45.184 -14.6,-71.27 L 6985.8,200.922 h 104.29 c 0,28.773 6.26,56.207 12.52,80.68 l 29.2,157.332 c 4.17,25.011 6.26,65.082 33.37,65.082 29.21,0 12.52,-47.332 8.34,-67.235 -4.16,-27.164 -8.34,-51.097 -14.6,-78.801 -10.42,-49.484 -18.77,-106.769 -29.2,-157.058 h 102.21 l 41.72,225.371 c 8.34,43.031 39.63,148.727 -54.24,138.504 -43.8,-5.106 -50.05,-25.817 -77.17,-43.027 -6.26,27.16 -31.29,46.527 -64.67,43.027 -47.97,-5.375 -45.88,-20.438 -73,-38.727"
         style="fill:#231715;fill-opacity:1;fill-rule:evenodd;stroke:none"
         id="path24" /><path
         d="M 6.44922,624.234 H 179.578 V 54.0781 H 292.215 V 624.234 h 173.129 v 93.59 H 6.44922 v -93.59"
         style="fill:#221714;fill-opacity:1;fill-rule:evenodd;stroke:none"
         id="path26" /><path
         d="m 3302.14,423.605 h -98.04 v 240.704 c 54.23,0 131.41,3.765 171.04,-25.821 12.52,-9.144 20.86,-22.859 27.12,-39.265 29.2,-76.11 8.34,-175.618 -100.12,-175.618 z M 3141.52,54.0781 h 62.58 V 370.352 c 50.06,0 33.37,-0.805 89.69,-75.84 L 3410.6,135.297 c 10.43,-13.981 18.78,-23.934 29.2,-37.922 8.35,-11.832 25.04,-31.1953 27.12,-43.2969 h 77.18 c -6.26,17.211 -41.72,61.3169 -56.32,78.8009 -22.94,32.269 -162.7,211.387 -175.21,237.473 108.46,0 168.95,65.621 168.95,173.738 0,112.957 -83.43,173.734 -196.07,173.734 H 3141.52 V 54.0781"
         style="fill:#221714;fill-opacity:1;fill-rule:evenodd;stroke:none"
         id="path28" /><path
         d="m 4345.07,267.887 c 0,-97.895 50.07,-185.0315 133.5,-214.6136 141.84,-51.37106 348.34,-7.5351 348.34,232.3636 v 432.187 h -62.57 V 276.762 c 0,-48.676 -16.69,-104.352 -39.63,-130.438 -68.84,-77.7224 -241.97,-69.3865 -289.94,14.793 -27.12,46.258 -31.29,97.356 -31.29,169.164 v 387.543 h -58.41 V 267.887"
         style="fill:#221714;fill-opacity:1;fill-rule:evenodd;stroke:none"
         id="path30" /><path
         d="m 5039.68,405.852 h -39.64 v 258.457 c 54.23,0 131.41,3.765 173.13,-22.325 64.66,-40.343 73.01,-187.453 -4.17,-217.839 -33.37,-12.645 -83.44,-18.293 -129.32,-18.293 z M 4937.46,54.0781 h 62.58 V 352.336 c 77.18,0 173.13,-8.07 231.53,39.531 79.27,63.469 77.18,214.617 6.26,282.66 -62.58,59.438 -196.07,43.297 -300.37,43.297 V 54.0781"
         style="fill:#231715;fill-opacity:1;fill-rule:evenodd;stroke:none"
         id="path32" /><path
         d="m 6118.07,561.84 -66.75,-360.918 h 125.16 c 12.51,58.09 20.86,118.332 33.37,180.187 l 33.38,180.731 c 25.02,0 79.26,-4.84 85.52,6.723 6.25,6.457 12.51,68.042 12.51,82.296 h -298.28 c 0,-99.507 -56.32,-89.019 75.09,-89.019"
         style="fill:#231715;fill-opacity:1;fill-rule:evenodd;stroke:none"
         id="path34" /><path
         d="m 6666.66,259.012 c 0,45.453 4.17,101.66 56.32,115.644 -4.18,-24.207 -8.35,-47.066 -14.6,-73.961 -8.35,-50.828 -10.43,-44.371 -41.72,-41.683 z m -70.92,164.593 h 98.03 c 0,16.672 6.26,50.29 10.43,64.543 12.52,36.844 56.32,26.086 31.29,-48.675 -25.03,-71.809 -171.04,2.687 -171.04,-202.782 0,-37.113 45.89,-58.093 98.03,-33.082 20.86,9.68 20.86,14.254 35.47,24.207 0,-18.289 0,-14.527 -4.18,-26.894 h 102.21 c 16.69,73.687 47.98,236.933 47.98,311.969 0,20.976 -31.29,43.57 -62.58,48.41 -33.37,5.109 -64.66,5.109 -95.95,-5.379 -29.2,-9.41 -50.06,-22.59 -66.75,-45.449 -12.51,-19.364 -22.94,-56.477 -22.94,-86.868"
         style="fill:#221714;fill-opacity:1;fill-rule:evenodd;stroke:none"
         id="path36" /><path
         d="m 6451.81,428.176 h -39.63 c 0,94.129 47.98,87.945 47.98,66.695 0,-26.625 -8.35,-39.801 -8.35,-66.695 z m -66.74,-236.133 c 45.88,0 79.26,14.793 106.38,36.848 22.94,19.363 41.71,63.738 45.88,101.39 h -98.03 c -2.09,-13.984 -6.26,-34.691 -10.43,-48.41 -12.52,-50.023 -47.98,-29.316 -47.98,-18.558 0,36.578 16.69,76.378 18.78,111.343 h 146.01 c 4.17,42.223 12.51,44.375 12.51,111.34 0,100.586 -198.16,117.527 -241.96,-14.789 -12.52,-33.617 -29.2,-135.277 -35.46,-174.812 -10.43,-71.809 41.72,-104.352 104.3,-104.352"
         style="fill:#221714;fill-opacity:1;fill-rule:evenodd;stroke:none"
         id="path38" /><path
         d="m 7361.25,699.805 v -4.301 l 4.18,3.766 z"
         style="fill:#221813;fill-opacity:1;fill-rule:evenodd;stroke:none"
         id="path40" /><path
         d="m 7361.25,699.805 -4.17,4.574 4.17,-4.574"
         style="fill:#231716;fill-opacity:1;fill-rule:evenodd;stroke:none"
         id="path42" /></g></g></svg>
