<?xml version="1.0" encoding="UTF-8" standalone="no"?>
<svg
   xmlns:dc="http://purl.org/dc/elements/1.1/"
   xmlns:cc="http://creativecommons.org/ns#"
   xmlns:rdf="http://www.w3.org/1999/02/22-rdf-syntax-ns#"
   xmlns:svg="http://www.w3.org/2000/svg"
   xmlns="http://www.w3.org/2000/svg"
   xmlns:sodipodi="http://sodipodi.sourceforge.net/DTD/sodipodi-0.dtd"
   xmlns:inkscape="http://www.inkscape.org/namespaces/inkscape"
   version="1.1"
   id="svg2"
   xml:space="preserve"
   width="257.33334"
   height="257.33334"
   viewBox="0 0 257.33334 257.33334"
   sodipodi:docname="Western_Digital.eps"><metadata
     id="metadata8"><rdf:RDF><cc:Work
         rdf:about=""><dc:format>image/svg+xml</dc:format><dc:type
           rdf:resource="http://purl.org/dc/dcmitype/StillImage" /></cc:Work></rdf:RDF></metadata><defs
     id="defs6" /><sodipodi:namedview
     pagecolor="#ffffff"
     bordercolor="#666666"
     borderopacity="1"
     objecttolerance="10"
     gridtolerance="10"
     guidetolerance="10"
     inkscape:pageopacity="0"
     inkscape:pageshadow="2"
     inkscape:window-width="640"
     inkscape:window-height="480"
     id="namedview4" /><g
     id="g10"
     inkscape:groupmode="layer"
     inkscape:label="ink_ext_XXXXXX"
     transform="matrix(1.3333333,0,0,-1.3333333,0,257.33333)"><g
       id="g12"
       transform="scale(0.1)"><path
         d="M 0,1927.56 H 1927.56 V 0 H 0 v 1927.56"
         style="fill:#ffffff;fill-opacity:1;fill-rule:evenodd;stroke:none"
         id="path14" /><path
         d="m 888.113,785.082 c 0,-27.598 -22.383,-49.984 -49.984,-49.984 H 135.016 c -27.594,0 -49.9769,22.386 -49.9769,49.984 v 369.838 c 0,27.6 22.3829,49.99 49.9769,49.99 h 703.113 c 27.601,0 49.984,-22.39 49.984,-49.99 V 785.082"
         style="fill:#1f4fa2;fill-opacity:1;fill-rule:evenodd;stroke:none"
         id="path16" /><path
         d="m 529.109,1042.81 18.352,53.3 h -72.129 l -16.973,-53.27 70.75,-0.03"
         style="fill:#ffffff;fill-opacity:1;fill-rule:evenodd;stroke:none"
         id="path18" /><path
         d="m 413.191,1042.86 -5.613,53.25 h -55.156 l -28.168,-53.23 88.937,-0.02"
         style="fill:#ffffff;fill-opacity:1;fill-rule:evenodd;stroke:none"
         id="path20" /><path
         d="m 451.598,1021.6 -27.176,-85.295 -9.125,86.575 -99.774,3.5 -44.847,-84.724 12.742,85.864 -69.258,2.43 -20.113,-181.259 h 95.16 l 72.703,147.09 14.817,-147.09 h 85.523 l 58.711,170.469 -69.363,2.44"
         style="fill:#ffffff;fill-opacity:1;fill-rule:evenodd;stroke:none"
         id="path22" /><path
         d="m 285.711,1042.89 8.023,54.13 h -72.132 l -6.008,-54.1 70.117,-0.03"
         style="fill:#ffffff;fill-opacity:1;fill-rule:evenodd;stroke:none"
         id="path24" /><path
         d="m 702.367,1096.11 h -136.41 l -17.766,-53.31 123.075,-0.04 c 33.933,-0.89 50.629,-28.65 39.136,-62.975 -11.652,-34.902 -45.73,-61.32 -84.5,-63.144 -9.949,-0.489 -13.402,-1.582 -27.562,-0.442 l 33.566,99.061 -91.816,3.23 -56.606,-169.799 h 136.414 c 68.582,0 143.735,54.161 166.915,123.715 23.16,69.584 -15.54,123.704 -84.446,123.704"
         style="fill:#ffffff;fill-opacity:1;fill-rule:evenodd;stroke:none"
         id="path26" /><path
         d="m 1045.59,1165.84 h 43.42 l 31.25,-134.69 h 0.49 l 28.79,134.69 h 36.7 L 1140.6,986.734 h -42.67 l -32.24,136.446 h -0.5 l -34.73,-136.446 h -43.663 l -43.66,179.106 h 39.699 l 27.534,-134.69 h 0.49 l 34.73,134.69"
         style="fill:#231f20;fill-opacity:1;fill-rule:evenodd;stroke:none"
         id="path28" /><path
         d="m 1214.16,1039.08 c 0,-16.13 2.23,-31.25 21.32,-31.25 12.9,0 19.35,4.71 22.83,16.13 h 33.49 c -3.23,-30.765 -27.29,-40.948 -56.32,-40.948 -42.66,0 -59.77,24.058 -59.77,65.738 0,37.47 21.82,66.24 59.77,66.24 23.33,0 42.67,-7.94 53.09,-29.78 3.47,-6.94 5.21,-14.37 6.21,-22.3 0.98,-7.71 0.98,-15.65 0.98,-23.83 z m 43.15,24.81 c 0,13.64 -3.72,26.3 -21.83,26.3 -17.1,0 -20.83,-12.66 -21.32,-26.3 h 43.15"
         style="fill:#231f20;fill-opacity:1;fill-rule:evenodd;stroke:none"
         id="path30" /><path
         d="m 1376.64,1078.03 c -0.5,8.43 -8.43,12.16 -16.87,12.16 -10.17,0 -14.89,-2.99 -14.89,-11.16 0,-19.61 71.2,-8.44 71.2,-55.07 0,-27.288 -33.23,-40.948 -56.31,-40.948 -29.01,0 -54.32,11.422 -54.81,39.938 h 34.47 c 0.76,-9.67 9.42,-15.12 20.34,-15.12 10.18,0 17.87,4.21 17.87,13.88 0,9.93 -17.87,14.15 -25.3,15.88 -23.82,5.71 -45.89,10.92 -45.89,39.94 0,26.05 31.49,37.46 53.32,37.46 26.31,0 48.62,-9.44 50.36,-36.96 h -33.49"
         style="fill:#231f20;fill-opacity:1;fill-rule:evenodd;stroke:none"
         id="path32" /><path
         d="m 1432.21,1111.26 v 24.56 l 37.2,13.41 v -37.97 h 28.04 v -24.8 h -28.04 v -57.8 c 0,-16.36 2.48,-20.83 15.38,-20.83 3.98,0 7.94,0.5 11.92,0.73 v -21.826 c -4.23,-1.98 -24.07,-3.722 -29.28,-3.722 -29.02,0 -35.22,15.133 -35.22,42.188 v 61.26 h -13.69 v 24.8 h 13.69"
         style="fill:#231f20;fill-opacity:1;fill-rule:evenodd;stroke:none"
         id="path34" /><path
         d="m 1539.86,1039.08 c 0,-16.13 2.23,-31.25 21.34,-31.25 12.9,0 19.35,4.71 22.82,16.13 h 33.49 c -3.23,-30.765 -27.3,-40.948 -56.31,-40.948 -42.66,0 -59.77,24.058 -59.77,65.738 0,37.47 21.82,66.24 59.77,66.24 23.31,0 42.66,-7.94 53.08,-29.78 3.47,-6.94 5.21,-14.37 6.2,-22.3 1,-7.71 1,-15.65 1,-23.83 z m 43.17,24.81 c 0,13.64 -3.73,26.3 -21.83,26.3 -17.12,0 -20.84,-12.66 -21.34,-26.3 h 43.17"
         style="fill:#231f20;fill-opacity:1;fill-rule:evenodd;stroke:none"
         id="path36" /><path
         d="m 1697.51,1079.76 c -6.19,-0.49 -14.38,-3.96 -18.1,-9.17 -3.97,-6.95 -4.71,-13.89 -4.96,-22.08 v -61.776 h -36.96 l -0.25,99.726 c 0,5.21 -0.74,15.62 -1.23,24.8 h 33.97 l 0.75,-22.56 h 0.5 c 7.93,19.6 23.81,24.55 42.41,24.06 l -16.13,-33"
         style="fill:#231f20;fill-opacity:1;fill-rule:evenodd;stroke:none"
         id="path38" /><path
         d="m 1760.41,1096.88 0.51,-0.74 c 7.67,11.4 19.34,18.85 38.19,18.85 12.41,0 36.46,-9.18 40.93,-27.29 1.99,-7.68 2.48,-15.63 2.48,-19.84 v -81.126 h -37.21 v 74.916 c -0.24,13.4 -3.96,28.54 -22.32,28.54 -11.66,0 -21.84,-10.43 -22.33,-28.54 v -74.916 h -37.21 v 124.526 h 36.96 v -14.38"
         style="fill:#231f20;fill-opacity:1;fill-rule:evenodd;stroke:none"
         id="path40" /><path
         d="m 956.793,950.859 h 61.017 c 55.81,0.496 90.55,-27.285 90.55,-89.562 0,-62.25 -34.74,-90.039 -90.55,-89.539 H 956.793 Z M 995.23,801.531 h 19.85 c 45.63,-0.496 52.34,31.246 52.34,59.766 0,28.539 -6.71,60.289 -52.34,59.793 H 995.23 V 801.531"
         style="fill:#231f20;fill-opacity:1;fill-rule:evenodd;stroke:none"
         id="path42" /><path
         d="m 1163.67,950.859 v -31.996 h -39.69 v 31.996 z m -1.24,-54.574 V 771.758 h -37.2 v 124.527 h 37.2"
         style="fill:#231f20;fill-opacity:1;fill-rule:evenodd;stroke:none"
         id="path44" /><path
         d="m 1301.84,782.922 c 0,-29.016 -6.44,-60.777 -61.01,-60.277 -27.54,0 -57.06,6.695 -57.79,40.187 h 35.21 c 0.5,-11.176 10.42,-15.383 20.6,-15.383 28.27,0 27.28,25.801 25.79,43.914 h -0.49 c -7.69,-12.172 -20.84,-17.125 -34.98,-17.125 -33.74,0 -51.1,31.762 -51.1,62.016 0,31.75 18.1,63.758 52.83,63.758 16.63,0 27.3,-5.461 33.25,-18.121 h 0.49 v 14.394 h 37.2 z m -61.27,16.125 c 20.35,0 24.07,20.828 24.07,36.949 0,18.359 -3.72,39.211 -24.07,39.211 -20.33,0 -24.05,-20.852 -24.05,-39.211 0,-16.121 3.72,-36.949 24.05,-36.949"
         style="fill:#231f20;fill-opacity:1;fill-rule:evenodd;stroke:none"
         id="path46" /><path
         d="m 1362.48,950.859 v -31.996 h -39.69 v 31.996 z m -1.24,-54.574 V 771.758 h -37.21 v 124.527 h 37.21"
         style="fill:#231f20;fill-opacity:1;fill-rule:evenodd;stroke:none"
         id="path48" /><path
         d="m 1388.27,896.285 v 24.559 l 37.21,13.398 v -37.957 h 28.04 v -24.808 h -28.04 v -57.793 c 0,-16.383 2.48,-20.836 15.38,-20.836 3.97,0 7.94,0.496 11.9,0.742 v -21.832 c -4.21,-1.988 -24.05,-3.727 -29.26,-3.727 -29.02,0 -35.23,15.141 -35.23,42.172 v 61.274 h -14.72 v 24.808 h 14.72"
         style="fill:#231f20;fill-opacity:1;fill-rule:evenodd;stroke:none"
         id="path50" /><path
         d="m 1467.9,861.059 c 0.24,15.632 6.95,25.304 16.86,31.011 10.17,5.953 23.32,7.942 36.72,7.942 25.05,0 53.07,-9.192 53.07,-46.641 v -67.969 c 0.26,-6.211 1.25,-9.918 1.74,-13.644 h -33.49 c -0.74,5.711 -1.23,11.414 -1.23,16.621 h -0.5 c -8.43,-14.383 -21.32,-20.348 -38.2,-20.348 -23.32,0 -40.68,13.407 -40.68,37.715 0,8.684 3.97,29.758 26.54,39.43 14.9,6.465 33.74,7.203 48.62,6.707 v 11.656 c 0,5.211 -3.97,15.383 -17.12,15.383 -12.89,0 -17.11,-12.152 -16.6,-17.863 z m 30.01,-50.356 c 0,-10.41 7.7,-17.855 18.11,-17.855 20.58,0 21.33,22.808 21.33,37.453 -12.9,0.234 -39.44,0.496 -39.44,-19.598"
         style="fill:#231f20;fill-opacity:1;fill-rule:evenodd;stroke:none"
         id="path52" /><path
         d="M 1634.9,950.859 V 771.758 h -37.21 v 179.101 h 37.21"
         style="fill:#231f20;fill-opacity:1;fill-rule:evenodd;stroke:none"
         id="path54" /><path
         d="m 1653.83,929.941 c 0,14.864 12.06,26.926 27.07,26.926 14.94,0 26.94,-12.062 26.94,-26.926 0,-15.003 -12,-27.066 -26.94,-27.066 -15.01,0 -27.07,12.063 -27.07,27.066 z m 49.26,0 c 0,12.211 -9.92,22.196 -22.19,22.196 -12.35,0 -22.33,-9.985 -22.33,-22.196 0,-12.347 9.98,-22.324 22.33,-22.324 12.27,0 22.19,9.977 22.19,22.324 z m -27.93,-1.789 v -13.718 h -4.96 v 31.734 h 10.27 c 5.81,0 11.85,-1.574 11.85,-8.754 0,-3.668 -2.23,-6.539 -6.46,-7.398 v -0.145 c 4.38,-0.863 4.88,-2.793 5.39,-6.246 0.42,-3.02 0.78,-6.32 1.86,-9.191 h -6.32 c -0.36,1.8 -0.85,3.808 -1.08,5.675 -0.35,2.723 -0.35,5.246 -1.8,6.743 -1.21,1.3 -2.86,1.152 -4.59,1.3 z m 5.24,4.95 c 4.66,0.144 5.74,2.082 5.74,4.527 0,2.371 -1.08,3.59 -5.03,3.59 h -5.95 v -8.117 h 5.24"
         style="fill:#231f20;fill-opacity:1;fill-rule:evenodd;stroke:none"
         id="path56" /></g></g></svg>
