<svg height="512" viewBox="0 0 59 60" width="512" xmlns="http://www.w3.org/2000/svg"><g id="026---Graphics-Card" fill="none"><path id="Path" d="m4 20h3v12h-3c-.55228475 0-1-.4477153-1-1v-10c0-.5522847.44771525-1 1-1z" fill="#8b93a2"/><path id="Rectangle" d="m3 37h4v12h-4z" fill="#8b93a2"/><path id="Path" d="m56 14h-49v38h10v2c.0032948 1.1032019.8967981 1.9967052 2 2h20c1.1032019-.0032948 1.9967052-.8967981 2-2v-2h6v2c.0032948 1.1032019.8967981 1.9967052 2 2h8c1.1032019-.0032948 1.9967052-.8967981 2-2v-37c0-.7956495-.3160705-1.5587112-.8786797-2.1213203-.5626091-.5626092-1.3256708-.8786797-2.1213203-.8786797z" fill="#7dbf29"/><path id="Path" d="m41 52v2c-.0032948 1.1032019-.8967981 1.9967052-2 2h-20c-1.1032019-.0032948-1.9967052-.8967981-2-2v-2z" fill="#ffc306"/><path id="Path" d="m59 52v2c-.0032948 1.1032019-.8967981 1.9967052-2 2h-8c-1.1032019-.0032948-1.9967052-.8967981-2-2v-2z" fill="#ffc306"/><rect id="Rectangle" fill="#66707f" height="6" rx="1" width="4" x="12" y="19"/><rect id="Rectangle" fill="#66707f" height="6" rx="1" width="4" x="12" y="30"/><rect id="Rectangle" fill="#66707f" height="6" rx="1" width="4" x="12" y="41"/><rect id="Rectangle" fill="#66707f" height="17" rx="1" width="6" x="21" y="19"/><rect id="Rectangle" fill="#66707f" height="6" rx="1" width="9" x="21" y="41"/><circle id="Oval" cx="43" cy="31" fill="#bbc1ce" r="12"/><circle id="Oval" cx="43" cy="31" fill="#f2f4f7" r="5"/><path id="Path" d="m55.0000265 31h-7.0000265c-.0000388-1.3265125-.5249046-2.5991323-1.46-3.54l4.95-4.95c2.2534177 2.2499914 3.5166967 5.305615 3.5100265 8.49z" fill="#ced2dc"/><path id="Path" d="m43 18.9999735v7.0000265c-1.3265125.0000388-2.5991323.5249046-3.54 1.46l-4.95-4.95c2.2499914-2.2534177 5.305615-3.5166967 8.49-3.5100265z" fill="#ced2dc"/><path id="Path" d="m39.46 34.54-4.95 4.95c-2.2534177-2.2499914-3.5166967-5.305615-3.5100265-8.49h7.0000265c.0000388 1.3265125.5249046 2.5991323 1.46 3.54z" fill="#ced2dc"/><path id="Path" d="m51.49 39.49c-2.2499914 2.2534177-5.305615 3.5166967-8.49 3.5100265v-7.0000265c1.3265125-.0000388 2.5991323-.5249046 3.54-1.46z" fill="#ced2dc"/><g fill="#f7ad00"><path id="Rectangle" d="m20 52h2v4h-2z"/><path id="Rectangle" d="m24 52h2v4h-2z"/><path id="Rectangle" d="m28 52h2v4h-2z"/><path id="Rectangle" d="m32 52h2v4h-2z"/><path id="Rectangle" d="m36 52h2v4h-2z"/><path id="Rectangle" d="m50 52h2v4h-2z"/><path id="Rectangle" d="m54 52h2v4h-2z"/></g><path id="Path" d="m11 32h1v2h-1c-.5522847 0-1-.4477153-1-1s.4477153-1 1-1z" fill="#ced2dc"/><path id="Path" d="m12 21v2h-1c-.5522847 0-1-.4477153-1-1s.4477153-1 1-1z" fill="#ced2dc"/><path id="Path" d="m11 43h1v2h-1c-.5522847 0-1-.4477153-1-1s.4477153-1 1-1z" fill="#ced2dc"/><path id="Path" d="m17 23h-1v-2h1c.5522847 0 1 .4477153 1 1s-.4477153 1-1 1z" fill="#ced2dc"/><path id="Path" d="m18 33c0 .5522847-.4477153 1-1 1h-1v-2h1c.5522847 0 1 .4477153 1 1z" fill="#ced2dc"/><path id="Path" d="m18 44c0 .5522847-.4477153 1-1 1h-1v-2h1c.5522847 0 1 .4477153 1 1z" fill="#ced2dc"/><path id="Path" d="m55 48h-11c-.5522847 0-1-.4477153-1-1s.4477153-1 1-1h11c.5522847 0 1 .4477153 1 1s-.4477153 1-1 1z" fill="#66707f"/><path id="Path" d="m40 48h-6c-.5522847 0-1-.4477153-1-1s.4477153-1 1-1h6c.5522847 0 1 .4477153 1 1s-.4477153 1-1 1z" fill="#66707f"/><path id="Shape" d="m43 44c-7.1797017 0-13-5.8202983-13-13s5.8202983-13 13-13 13 5.8202983 13 13c-.008266 7.1762751-5.8237249 12.991734-13 13zm0-24c-6.0751322 0-11 4.9248678-11 11s4.9248678 11 11 11 11-4.9248678 11-11c-.0071635-6.0721626-4.9278374-10.9928365-11-11z" fill="#f2f4f7"/><path id="Path" d="m8 1v58c0 .5522847-.44771525 1-1 1s-1-.4477153-1-1v-57h-5c-.55228475 0-1-.44771525-1-1s.44771525-1 1-1h6c.55228475 0 1 .44771525 1 1z" fill="#bbc1ce"/><path id="Path" d="m2 48h4v2h-4c-.55228475 0-1-.4477153-1-1s.44771525-1 1-1z" fill="#798291"/><path id="Path" d="m6 36v2h-4c-.55228475 0-1-.4477153-1-1s.44771525-1 1-1z" fill="#798291"/></g></svg>