<svg id="Capa_1" enable-background="new 0 0 512 512" height="512" viewBox="0 0 512 512" width="512" xmlns="http://www.w3.org/2000/svg"><g><path d="m51.2 460.8v-427.834c0-18.207 14.759-32.966 32.966-32.966h343.668c18.207 0 32.966 14.759 32.966 32.966v427.834z" fill="#c5d3dd"/><path d="m427.834 0h-23.693c18.206 0 32.966 14.759 32.966 32.966v427.834h23.693v-427.834c0-18.207-14.759-32.966-32.966-32.966z" fill="#abc1d1"/><path d="m67.683 512h376.634c9.103 0 16.483-7.38 16.483-16.483v-34.717c0-9.426-7.641-17.067-17.067-17.067h-375.466c-9.426 0-17.067 7.641-17.067 17.067v34.717c0 9.103 7.38 16.483 16.483 16.483z" fill="#9facba"/><path d="m443.733 443.733h-23.694c9.426 0 17.067 7.641 17.067 17.067v34.717c0 9.103-7.38 16.483-16.483 16.483h23.694c9.103 0 16.483-7.38 16.483-16.483v-34.717c0-9.426-7.641-17.067-17.067-17.067z" fill="#8e9dad"/><g><path d="m426.667 485.592h-17.067c-4.267 0-7.726-3.459-7.726-7.726 0-4.268 3.459-7.726 7.726-7.726h17.066c4.267 0 7.726 3.459 7.726 7.726.001 4.268-3.458 7.726-7.725 7.726z" fill="#ee6161"/></g><g><path d="m375.467 485.592h-17.067c-4.267 0-7.726-3.459-7.726-7.726 0-4.268 3.459-7.726 7.726-7.726h17.067c4.267 0 7.726 3.459 7.726 7.726 0 4.268-3.459 7.726-7.726 7.726z" fill="#6ed5a1"/></g><g><g><path d="m93.867 41.86h-8.533c-4.267 0-7.726-3.459-7.726-7.726s3.459-7.726 7.726-7.726h8.533c4.267 0 7.726 3.459 7.726 7.726s-3.459 7.726-7.726 7.726z" fill="#2b3b4d"/></g><g><path d="m426.667 41.86h-8.533c-4.267 0-7.726-3.459-7.726-7.726s3.459-7.726 7.726-7.726h8.533c4.267 0 7.726 3.459 7.726 7.726s-3.459 7.726-7.726 7.726z" fill="#2b3b4d"/></g></g><g><g><path d="m93.867 417.326h-8.533c-4.267 0-7.726-3.459-7.726-7.726 0-4.268 3.459-7.726 7.726-7.726h8.533c4.267 0 7.726 3.459 7.726 7.726s-3.459 7.726-7.726 7.726z" fill="#2b3b4d"/></g><g><path d="m426.667 417.326h-8.533c-4.267 0-7.726-3.459-7.726-7.726 0-4.268 3.459-7.726 7.726-7.726h8.533c4.267 0 7.726 3.459 7.726 7.726s-3.459 7.726-7.726 7.726z" fill="#2b3b4d"/></g></g><path d="m351.331 34.133h-93.694c-94.512 0-172.288 76.127-172.303 170.639-.006 38.437 12.698 73.905 34.133 102.438v8.523c0 4.713-3.82 8.533-8.533 8.533h-17.067c-4.713 0-8.533 3.82-8.533 8.533v34.133c0 4.713 3.821 8.533 8.533 8.533h25.6c4.713 0 8.533 3.82 8.533 8.533v17.067c0 4.713 3.82 8.533 8.533 8.533h119.467l42.667-6.799 42.665 6.799h34.134c4.713 0 8.533-3.82 8.533-8.533v-17.065c0-4.713 3.82-8.533 8.533-8.533h25.6c4.713 0 8.533-3.82 8.533-8.533v-257.465c0-4.526-1.798-8.867-4.999-12.068l-58.269-58.269c-3.199-3.201-7.54-4.999-12.066-4.999z" fill="#2b3b4d"/><g fill="#222f3d"><path d="m360.306 384v17.067c0 4.713-3.82 8.533-8.533 8.533h23.694c4.713 0 8.533-3.82 8.533-8.533v-17.067c0-4.713 3.82-8.533 8.533-8.533h-23.694c-4.713 0-8.533 3.82-8.533 8.533z"/><path d="m421.668 97.401-58.269-58.269c-3.201-3.201-7.542-4.999-12.068-4.999h-23.694c4.526 0 8.867 1.798 12.068 4.999l58.269 58.269c3.201 3.201 4.999 7.542 4.999 12.068v257.464c0 4.713-3.82 8.533-8.533 8.533h23.694c4.713 0 8.533-3.82 8.533-8.533v-257.464c0-4.526-1.798-8.867-4.999-12.068z"/></g><circle cx="256" cy="204.8" fill="#c5d3dd" r="136.533"/><path d="m256 68.267c-3.992 0-7.942.181-11.847.517 69.857 6.006 124.686 64.603 124.686 136.016s-54.829 130.01-124.686 136.016c3.905.336 7.855.517 11.847.517 75.405 0 136.533-61.128 136.533-136.533s-61.128-136.533-136.533-136.533z" fill="#abc1d1"/><circle cx="256" cy="204.8" fill="#9facba" r="51.2"/><path d="m256 153.6c-4.08 0-8.043.491-11.847 1.393 22.562 5.347 39.353 25.61 39.353 49.807s-16.791 44.46-39.353 49.807c3.804.902 7.767 1.393 11.847 1.393 28.277 0 51.2-22.923 51.2-51.2s-22.923-51.2-51.2-51.2z" fill="#8e9dad"/><path d="m163.034 343.135 136.533-68.267c8.429-4.215 18.682-.799 22.897 7.632 4.215 8.43.798 18.682-7.633 22.897l-136.533 68.267z" fill="#6aabf0"/><circle cx="170.667" cy="358.4" fill="#c5d3dd" r="17.067"/><path d="m341.333 409.6h-85.333v-26.133c0-4.418 3.582-8 8-8h69.333c4.418 0 8 3.582 8 8z" fill="#6ed5a1"/><path d="m333.092 375.467h-22.99c4.552 0 8.241 3.69 8.241 8.241v25.892h22.99v-25.892c0-4.552-3.69-8.241-8.241-8.241z" fill="#46cc8d"/><g><g><path d="m392.533 314.927h-8.533c-4.267 0-7.726-3.459-7.726-7.726s3.459-7.726 7.726-7.726h8.533c4.267 0 7.726 3.459 7.726 7.726s-3.459 7.726-7.726 7.726z" fill="#6ed5a1"/></g></g><g><g><path d="m392.533 349.059h-8.533c-4.267 0-7.726-3.459-7.726-7.726 0-4.268 3.459-7.726 7.726-7.726h8.533c4.267 0 7.726 3.459 7.726 7.726.001 4.268-3.459 7.726-7.726 7.726z" fill="#6ed5a1"/></g></g><circle cx="256" cy="204.8" fill="#35495e" r="17.067"/><g fill="#2b3b4d"><path d="m256 187.733c-4.605 0-8.777 1.833-11.847 4.798 3.213 3.104 5.219 7.449 5.219 12.269s-2.006 9.165-5.219 12.269c3.07 2.965 7.242 4.798 11.847 4.798 9.426 0 17.067-7.641 17.067-17.067s-7.641-17.067-17.067-17.067z"/><path d="m161.327 443.733h-15.453v68.267h15.453z"/><path d="m127.193 443.733h-15.453v68.267h15.453z"/><path d="m93.06 443.733h-15.453v68.267h15.453z"/></g><path d="m298.667 470.14h-85.333c-8.966 0-16.26 7.295-16.26 16.261v25.599h15.453v-25.6c0-.446.362-.808.807-.808h85.333c.445 0 .807.362.807.808v25.6h15.453v-25.6c0-8.965-7.295-16.26-16.26-16.26z" fill="#8e9dad"/></g></svg>